<?xml version="1.0" encoding="utf-8"?>
<!-- Generator: Adobe Illustrator 16.0.0, SVG Export Plug-In . SVG Version: 6.00 Build 0)  -->
<!DOCTYPE svg PUBLIC "-//W3C//DTD SVG 1.1//EN" "http://www.w3.org/Graphics/SVG/1.1/DTD/svg11.dtd">
<svg version="1.1" id="Layer_1" xmlns="http://www.w3.org/2000/svg" xmlns:xlink="http://www.w3.org/1999/xlink" x="0px" y="0px"
	 width="400px" height="400px" viewBox="0 0 400 400" enable-background="new 0 0 400 400" xml:space="preserve">
<g>
	<g>
		<path fill="#FC6F5C" d="M225.896,118.404L225.494,1H63v399h273V117.87L225.896,118.404z M166,334.976
			c0,5.623-0.2,10.108-1.663,13.456c-1.469,3.35-3.683,5.186-7.181,6.797c-3.5,1.613-8.094,1.771-14.31,1.771H124v-72h18.666
			c6.278,0,11.181,1.099,14.712,2.655c3.525,1.554,5.49,4.149,6.959,7.47c1.463,3.316,1.663,7.917,1.663,13.479V334.976z
			 M220,335.426c0,7.893-1.879,13.857-5.255,17.894c-3.381,4.037-9.108,6.055-17.002,6.055c-7.835,0-12.897-2.018-16.247-6.055
			c-3.35-4.036-4.496-10.001-4.496-17.894v-27.001c0-7.893,1.103-13.827,4.452-17.806c3.347-3.977,8.651-5.963,16.483-5.963
			c7.895,0,13.573,2.002,16.954,6.009c3.376,4.006,5.11,9.926,5.11,17.76V335.426z M271,313h-14v-8.343
			c0-2.811-1.092-4.962-1.689-6.458c-0.596-1.495-2.427-2.241-4.7-2.241c-2.272,0-3.792,0.792-4.51,2.375
			c-0.719,1.587-1.101,3.783-1.101,6.595v34.174c0,2.872,0.197,5.068,0.947,6.594c0.75,1.523,2.141,2.288,4.353,2.288
			c2.211,0,4.383-0.765,5.01-2.288c0.63-1.525,1.69-3.722,1.69-6.594V332h14v5.757c0,6.816-1.53,12.126-4.697,15.922
			c-3.171,3.797-8.521,5.695-16.118,5.695c-7.895,0-13.692-2.075-17.013-6.234c-3.32-4.156-5.172-10.147-5.172-17.985v-26.19
			c0-8.014,1.854-14.069,5.142-18.165c3.289-4.094,9.013-6.143,16.97-6.143c7.59,0,12.97,1.825,16.141,5.47
			c3.17,3.648,4.748,8.822,4.748,15.52V313z"/>
		<path fill="#FC6F5C" d="M197.651,295.958c-2.152,0-3.724,0.76-4.44,2.287c-0.717,1.522-1.211,3.602-1.211,6.233v34.984
			c0,2.63,0.461,4.707,1.121,6.232c0.658,1.523,2.192,2.288,4.463,2.288c2.271,0,4.695-0.765,5.411-2.288
			c0.717-1.525,2.005-3.603,2.005-6.232v-34.984c0-2.691-1.254-4.783-1.973-6.279C202.312,296.704,199.923,295.958,197.651,295.958z
			"/>
		<path fill="#FC6F5C" d="M147.915,298.827c-1.109-0.599-2.829,0.173-5.159,0.173H139v50h3.847c2.331,0,4.048-1.255,5.155-1.944
			c1.106-0.687,1.527-2.13,1.83-3.417c0.297-1.285,0.168-3.64,0.168-6.15v-31.664c0-2.333,0.111-3.575-0.211-4.802
			C149.455,299.799,149.02,299.424,147.915,298.827z"/>
	</g>
	<polygon fill="#FC6F5C" points="235,0.762 235,111 336.293,111 	"/>
</g>
</svg>
