<?xml version="1.0" encoding="utf-8"?>
<!-- Generator: Adobe Illustrator 16.0.0, SVG Export Plug-In . SVG Version: 6.00 Build 0)  -->
<!DOCTYPE svg PUBLIC "-//W3C//DTD SVG 1.1//EN" "http://www.w3.org/Graphics/SVG/1.1/DTD/svg11.dtd">
<svg version="1.1" id="Layer_1" xmlns="http://www.w3.org/2000/svg" xmlns:xlink="http://www.w3.org/1999/xlink" x="0px" y="0px"
	 width="400px" height="400px" viewBox="0 0 400 400" enable-background="new 0 0 400 400" xml:space="preserve">
<path fill="none" stroke="#FFFFFF" stroke-width="4" stroke-miterlimit="10" d="M256.523,164.967"/>
<path fill="none" stroke="#FFFFFF" stroke-width="4" stroke-miterlimit="10" d="M213.558,122"/>
<g>
	<g>
		<path fill="#FC6F5C" d="M153.712,297H149v21h4.802c2.819,0,4.696-1.488,5.626-2.988s1.396-4.389,1.396-7.93
			c0-3.238-0.451-5.91-1.349-7.473C158.573,298.053,156.651,297,153.712,297z"/>
		<path fill="#FC6F5C" d="M207.399,297.944c-1.113-0.602-2.838-0.944-5.177-0.944H199v50h3.312c2.339,0,4.063-0.057,5.174-0.748
			c1.111-0.688,1.287-1.537,1.592-2.827c0.297-1.288-0.078-3.051-0.078-5.571v-31.77c0-2.342,0.359-4.146,0.031-5.377
			C208.703,299.479,208.508,298.543,207.399,297.944z"/>
		<path fill="#FC6F5C" d="M226.326,117.916L225.724,0H62v400h275V117.5L226.326,117.916z M170.408,323.342
			c-3.69,3.029-8.864,4.658-15.524,4.658H149v29h-17v-72h24.773c6.418,0,11.218,2.231,14.399,5.859
			c3.179,3.632,4.771,9.134,4.771,15.973C175.944,314.631,174.098,320.312,170.408,323.342z M228,335.332
			c0,5.642-1.428,10.142-2.896,13.501c-1.476,3.362-4.309,4.983-7.818,6.604c-3.512,1.617-8.734,1.562-14.973,1.562H185v-72h17.133
			c6.298,0,11.218,1.196,14.76,2.759c3.537,1.558,6.735,4.212,8.211,7.541c1.469,3.331,2.896,7.993,2.896,13.571V335.332z M267,297
			h-15v18h15v13h-15v29h-16v-72h31V297z"/>
	</g>
	<polygon fill="#FC6F5C" points="235,0 235,109 336.894,109 	"/>
</g>
</svg>
