<?xml version="1.0" encoding="utf-8"?>
<!-- Generator: Adobe Illustrator 16.0.0, SVG Export Plug-In . SVG Version: 6.00 Build 0)  -->
<!DOCTYPE svg PUBLIC "-//W3C//DTD SVG 1.1//EN" "http://www.w3.org/Graphics/SVG/1.1/DTD/svg11.dtd">
<svg version="1.1" id="Layer_1" xmlns="http://www.w3.org/2000/svg" xmlns:xlink="http://www.w3.org/1999/xlink" x="0px" y="0px"
	 width="1123px" height="600px" viewBox="0 0 1123 600" enable-background="new 0 0 1123 600" xml:space="preserve">
<rect x="877.58" y="5.287" fill="#FF5259" stroke="#FFFFFF" stroke-width="3" stroke-miterlimit="10" width="239" height="139"/>
<rect x="877.58" y="144.287" fill="#FF5259" stroke="#FFFFFF" stroke-width="3" stroke-miterlimit="10" width="239" height="139"/>
<rect x="639.58" y="5.287" fill="#FF5259" stroke="#FFFFFF" stroke-width="3" stroke-miterlimit="10" width="238" height="139"/>
<rect x="639.58" y="144.287" fill="#FF9EA0" stroke="#FFFFFF" stroke-width="3" stroke-miterlimit="10" width="238" height="139"/>
<rect x="399.58" y="144.287" fill="#FF9EA0" stroke="#FFFFFF" stroke-width="3" stroke-miterlimit="10" width="240" height="139"/>
<rect x="399.58" y="5.287" fill="#FF9EA0" stroke="#FFFFFF" stroke-width="3" stroke-miterlimit="10" width="240" height="139"/>
<rect x="160.58" y="5.287" fill="#FF9EA0" stroke="#FFFFFF" stroke-width="3" stroke-miterlimit="10" width="239" height="139"/>
<rect x="639.58" y="283.287" fill="#FF9EA0" stroke="#FFFFFF" stroke-width="3" stroke-miterlimit="10" width="238" height="139"/>
<rect x="877.58" y="283.287" fill="#FF9EA0" stroke="#FFFFFF" stroke-width="3" stroke-miterlimit="10" width="239" height="139"/>
<rect x="877.58" y="422.287" fill="#FF9EA0" stroke="#FFFFFF" stroke-width="3" stroke-miterlimit="10" width="239" height="138"/>
<rect x="399.58" y="283.287" fill="#FFD4D5" stroke="#FFFFFF" stroke-width="3" stroke-miterlimit="10" width="240" height="139"/>
<rect x="160.58" y="144.287" fill="#FFD4D5" stroke="#FFFFFF" stroke-width="3" stroke-miterlimit="10" width="239" height="139"/>
<rect x="639.58" y="422.287" fill="#FFD4D5" stroke="#FFFFFF" stroke-width="3" stroke-miterlimit="10" width="238" height="138"/>
<rect x="399.58" y="422.287" fill="#FFEEEE" stroke="#FFFFFF" stroke-width="3" stroke-miterlimit="10" width="240" height="138"/>
<rect x="160.58" y="283.287" fill="#FFE9E9" stroke="#FFFFFF" stroke-width="3" stroke-miterlimit="10" width="239" height="139"/>
<rect x="160.58" y="422.287" fill="#FFEEEE" stroke="#FFFFFF" stroke-width="3" stroke-miterlimit="10" width="239" height="138"/>
<text transform="matrix(1.0689 0 0 1 216.4775 586.5654)" font-family="'Oswald-Regular'" font-size="24">USED BY FEW</text>
<text transform="matrix(1.0689 0 0 1 448.2793 586.5654)" font-family="'Oswald-Regular'" font-size="24">USED BY SOME</text>
<text transform="matrix(1.0689 0 0 1 689.3652 586.5664)" font-family="'Oswald-Regular'" font-size="24">USED BY MANY</text>
<text transform="matrix(1.0689 0 0 1 939.7637 586.5664)" font-family="'Oswald-Regular'" font-size="24">USED BY ALL</text>
<text transform="matrix(1.0689 0 0 1 99.46 491.2871)" font-family="'Oswald-Regular'" font-size="24">USED</text>
<text transform="matrix(1.0689 0 0 1 77.2695 520.0869)" font-family="'Oswald-Regular'" font-size="24">RARELY</text>
<text transform="matrix(1.0689 0 0 1 99.46 74.7871)" font-family="'Oswald-Regular'" font-size="24">USED</text>
<text transform="matrix(1.0689 0 0 1 70.8828 103.5869)" font-family="'Oswald-Regular'" font-size="24">ALWAYS</text>
<text transform="matrix(1.0689 0 0 1 99.46 206.8027)" font-family="'Oswald-Regular'" font-size="24">USED</text>
<text transform="matrix(1.0689 0 0 1 31.1201 235.6025)" font-family="'Oswald-Regular'" font-size="24">FREQUENTLY</text>
<text transform="matrix(1.0689 0 0 1 99.46 340.1738)" font-family="'Oswald-Regular'" font-size="24">USED</text>
<text transform="matrix(1.0689 0 0 1 5.416 368.9736)" font-family="'Oswald-Regular'" font-size="24">OCCASIONALLY</text>
<text transform="matrix(1 0 0 1 907.0977 64.8711)" font-family="'Oswald-Regular'" font-size="24">Microsoft SharePoint</text>
<text transform="matrix(1 0 0 1 458.1851 359.3252)" font-family="'Oswald-Regular'" font-size="24">Email Calendar</text>
<text transform="matrix(1 0 0 1 721.7441 223.0811)" font-family="'Oswald-Regular'" font-size="24">Excel Files</text>
<text transform="matrix(1 0 0 1 481.7656 81.9668)" font-family="'Oswald-Regular'" font-size="24">Box.com</text>
<text transform="matrix(1 0 0 1 956.3867 101.0508)" font-family="'Oswald-Regular'" font-size="24">Plan Grid</text>
<text transform="matrix(1 0 0 1 241.1538 499.8613)" font-family="'Oswald-Regular'" font-size="24">Dropbox</text>
</svg>
