<?xml version="1.0" encoding="utf-8"?>
<!-- Generator: Adobe Illustrator 16.0.0, SVG Export Plug-In . SVG Version: 6.00 Build 0)  -->
<!DOCTYPE svg PUBLIC "-//W3C//DTD SVG 1.1//EN" "http://www.w3.org/Graphics/SVG/1.1/DTD/svg11.dtd">
<svg version="1.1" id="Layer_1" xmlns="http://www.w3.org/2000/svg" xmlns:xlink="http://www.w3.org/1999/xlink" x="0px" y="0px"
	 width="1147px" height="600px" viewBox="-9 0 1147 600" enable-background="new -9 0 1147 600" xml:space="preserve">
<g>
	<rect x="888.42" y="6.287" fill="#FF5259" stroke="#FFFFFF" stroke-width="3" stroke-miterlimit="10" width="239" height="139"/>
	<rect x="888.42" y="145.287" fill="#FF5259" stroke="#FFFFFF" stroke-width="3" stroke-miterlimit="10" width="239" height="139"/>
	<rect x="650.42" y="6.287" fill="#FF5259" stroke="#FFFFFF" stroke-width="3" stroke-miterlimit="10" width="238" height="139"/>
	<rect x="650.42" y="145.287" fill="#FF9EA0" stroke="#FFFFFF" stroke-width="3" stroke-miterlimit="10" width="238" height="139"/>
	<rect x="410.42" y="145.287" fill="#FF9EA0" stroke="#FFFFFF" stroke-width="3" stroke-miterlimit="10" width="240" height="139"/>
	<rect x="410.42" y="6.287" fill="#FF9EA0" stroke="#FFFFFF" stroke-width="3" stroke-miterlimit="10" width="240" height="139"/>
	<rect x="171.42" y="6.287" fill="#FF9EA0" stroke="#FFFFFF" stroke-width="3" stroke-miterlimit="10" width="239" height="139"/>
	<rect x="650.42" y="284.287" fill="#FF9EA0" stroke="#FFFFFF" stroke-width="3" stroke-miterlimit="10" width="238" height="139"/>
	<rect x="888.42" y="284.287" fill="#FF9EA0" stroke="#FFFFFF" stroke-width="3" stroke-miterlimit="10" width="239" height="139"/>
	<rect x="888.42" y="423.287" fill="#FF9EA0" stroke="#FFFFFF" stroke-width="3" stroke-miterlimit="10" width="239" height="138"/>
	<rect x="410.42" y="284.287" fill="#FFD4D5" stroke="#FFFFFF" stroke-width="3" stroke-miterlimit="10" width="240" height="139"/>
	<rect x="171.42" y="145.287" fill="#FFD4D5" stroke="#FFFFFF" stroke-width="3" stroke-miterlimit="10" width="239" height="139"/>
	<rect x="650.42" y="423.287" fill="#FFD4D5" stroke="#FFFFFF" stroke-width="3" stroke-miterlimit="10" width="238" height="138"/>
	<rect x="410.42" y="423.287" fill="#FFEEEE" stroke="#FFFFFF" stroke-width="3" stroke-miterlimit="10" width="240" height="138"/>
	<rect x="171.42" y="284.287" fill="#FFE9E9" stroke="#FFFFFF" stroke-width="3" stroke-miterlimit="10" width="239" height="139"/>
	<rect x="171.42" y="423.287" fill="#FFEEEE" stroke="#FFFFFF" stroke-width="3" stroke-miterlimit="10" width="239" height="138"/>
	<text transform="matrix(1.0689 0 0 1 227.3174 587.5654)" font-family="'Oswald-Regular'" font-size="24">USED BY FEW</text>
	<text transform="matrix(1.0689 0 0 1 459.1191 587.5654)" font-family="'Oswald-Regular'" font-size="24">USED BY SOME</text>
	<text transform="matrix(1.0689 0 0 1 700.2051 587.5664)" font-family="'Oswald-Regular'" font-size="24">USED BY MANY</text>
	<text transform="matrix(1.0689 0 0 1 950.6035 587.5664)" font-family="'Oswald-Regular'" font-size="24">USED BY ALL</text>
	<text transform="matrix(1.0689 0 0 1 93.2998 492.2871)" font-family="'Oswald-Regular'" font-size="24">USED</text>
	<text transform="matrix(1.0689 0 0 1 71.8545 521.0869)" font-family="'Oswald-Regular'" font-size="24">RARELY</text>
	<text transform="matrix(1.0689 0 0 1 93.2998 75.7871)" font-family="'Oswald-Regular'" font-size="24">USED</text>
	<text transform="matrix(1.0689 0 0 1 66.6211 104.5869)" font-family="'Oswald-Regular'" font-size="24">ALWAYS</text>
	<text transform="matrix(1.0689 0 0 1 93.2998 207.8027)" font-family="'Oswald-Regular'" font-size="24">USED</text>
	<text transform="matrix(1.0689 0 0 1 25.7041 236.6025)" font-family="'Oswald-Regular'" font-size="24">FREQUENTLY</text>
	<text transform="matrix(1.0689 0 0 1 93.2998 341.1738)" font-family="'Oswald-Regular'" font-size="24">USED</text>
	<text transform="matrix(1.0689 0 0 1 0 369.9736)" font-family="'Oswald-Regular'" font-size="24">OCCASIONALLY</text>
	<text transform="matrix(1 0 0 1 916.9375 65.8711)" font-family="'Oswald-Regular'" font-size="24">Microsoft SharePoint</text>
	<text transform="matrix(1 0 0 1 469.0249 360.3252)" font-family="'Oswald-Regular'" font-size="24">Email Calendar</text>
	<text transform="matrix(1 0 0 1 732.584 224.0811)" font-family="'Oswald-Regular'" font-size="24">Excel Files</text>
	<text transform="matrix(1 0 0 1 492.6055 82.9668)" font-family="'Oswald-Regular'" font-size="24">Box.com</text>
	<text transform="matrix(1 0 0 1 966.2266 102.0508)" font-family="'Oswald-Regular'" font-size="24">Plan Grid</text>
	<text transform="matrix(1 0 0 1 251.9937 500.8613)" font-family="'Oswald-Regular'" font-size="24">Dropbox</text>
</g>
</svg>
