<?xml version="1.0" encoding="utf-8"?>
<!-- Generator: Adobe Illustrator 16.0.0, SVG Export Plug-In . SVG Version: 6.00 Build 0)  -->
<!DOCTYPE svg PUBLIC "-//W3C//DTD SVG 1.1//EN" "http://www.w3.org/Graphics/SVG/1.1/DTD/svg11.dtd">
<svg version="1.1" id="Layer_1" xmlns="http://www.w3.org/2000/svg" xmlns:xlink="http://www.w3.org/1999/xlink" x="0px" y="0px"
	 width="1275px" height="600px" viewBox="0 0 1275 600" enable-background="new 0 0 1275 600" xml:space="preserve">
<rect x="877.58" y="5.287" fill="#FF5259" stroke="#FFFFFF" stroke-width="3" stroke-miterlimit="10" width="239" height="139"/>
<rect x="877.58" y="144.287" fill="#FF5259" stroke="#FFFFFF" stroke-width="3" stroke-miterlimit="10" width="239" height="139"/>
<rect x="639.58" y="5.287" fill="#FF5259" stroke="#FFFFFF" stroke-width="3" stroke-miterlimit="10" width="238" height="139"/>
<rect x="639.58" y="144.287" fill="#FF9EA0" stroke="#FFFFFF" stroke-width="3" stroke-miterlimit="10" width="238" height="139"/>
<rect x="399.58" y="144.287" fill="#FF9EA0" stroke="#FFFFFF" stroke-width="3" stroke-miterlimit="10" width="240" height="139"/>
<rect x="399.58" y="5.287" fill="#FF9EA0" stroke="#FFFFFF" stroke-width="3" stroke-miterlimit="10" width="240" height="139"/>
<rect x="160.58" y="5.287" fill="#FF9EA0" stroke="#FFFFFF" stroke-width="3" stroke-miterlimit="10" width="239" height="139"/>
<rect x="639.58" y="283.287" fill="#FF9EA0" stroke="#FFFFFF" stroke-width="3" stroke-miterlimit="10" width="238" height="139"/>
<rect x="877.58" y="283.287" fill="#FF9EA0" stroke="#FFFFFF" stroke-width="3" stroke-miterlimit="10" width="239" height="139"/>
<rect x="877.58" y="422.287" fill="#FF9EA0" stroke="#FFFFFF" stroke-width="3" stroke-miterlimit="10" width="239" height="138"/>
<rect x="399.58" y="283.287" fill="#FFD4D5" stroke="#FFFFFF" stroke-width="3" stroke-miterlimit="10" width="240" height="139"/>
<rect x="160.58" y="144.287" fill="#FFD4D5" stroke="#FFFFFF" stroke-width="3" stroke-miterlimit="10" width="239" height="139"/>
<rect x="639.58" y="422.287" fill="#FFD4D5" stroke="#FFFFFF" stroke-width="3" stroke-miterlimit="10" width="238" height="138"/>
<rect x="399.58" y="422.287" fill="#FFEEEE" stroke="#FFFFFF" stroke-width="3" stroke-miterlimit="10" width="240" height="138"/>
<rect x="160.58" y="283.287" fill="#FFE9E9" stroke="#FFFFFF" stroke-width="3" stroke-miterlimit="10" width="239" height="139"/>
<rect x="160.58" y="422.287" fill="#FFEEEE" stroke="#FFFFFF" stroke-width="3" stroke-miterlimit="10" width="239" height="138"/>
<text transform="matrix(1.0689 0 0 1 216.4771 586.5654)" font-family="'Oswald-Regular'" font-size="24">USED BY FEW</text>
<text transform="matrix(1.0689 0 0 1 448.2793 586.5654)" font-family="'Oswald-Regular'" font-size="24">USED BY SOME</text>
<text transform="matrix(1.0689 0 0 1 689.3652 586.5664)" font-family="'Oswald-Regular'" font-size="24">USED BY MANY</text>
<text transform="matrix(1.0689 0 0 1 939.7637 586.5664)" font-family="'Oswald-Regular'" font-size="24">USED BY ALL</text>
<text transform="matrix(1.0689 0 0 1 99.4595 491.2871)"><tspan x="0" y="0" font-family="'Oswald-Regular'" font-size="24">USED</tspan><tspan x="-20.76" y="28.8" font-family="'Oswald-Regular'" font-size="24">RARELY</tspan></text>
<text transform="matrix(1.0689 0 0 1 99.46 74.7871)"><tspan x="0" y="0" font-family="'Oswald-Regular'" font-size="24">USED</tspan><tspan x="-26.735" y="28.8" font-family="'Oswald-Regular'" font-size="24">ALWAYS</tspan></text>
<text transform="matrix(1.0689 0 0 1 99.46 206.8027)"><tspan x="0" y="0" font-family="'Oswald-Regular'" font-size="24">USED</tspan><tspan x="-63.935" y="28.8" font-family="'Oswald-Regular'" font-size="24">FREQUENTLY</tspan></text>
<text transform="matrix(1.0689 0 0 1 99.4595 340.1738)"><tspan x="0" y="0" font-family="'Oswald-Regular'" font-size="24">USED</tspan><tspan x="-87.982" y="28.8" font-family="'Oswald-Regular'" font-size="24">OCCASIONALLY</tspan></text>
<text transform="matrix(1 0 0 1 907.0977 64.8706)" font-family="'Oswald-Regular'" font-size="24">Microsoft SharePoint</text>
<text transform="matrix(1 0 0 1 458.1851 359.3252)" font-family="'Oswald-Regular'" font-size="24">Email Calendar</text>
<text transform="matrix(1 0 0 1 721.7441 223.0815)" font-family="'Oswald-Regular'" font-size="24">Excel Files</text>
<text transform="matrix(1 0 0 1 481.7656 81.9673)" font-family="'Oswald-Regular'" font-size="24">Box.com</text>
<text transform="matrix(1 0 0 1 956.3867 101.0508)" font-family="'Oswald-Regular'" font-size="24">Plan Grid</text>
<text transform="matrix(1 0 0 1 241.1538 499.8613)" font-family="'Oswald-Regular'" font-size="24">Dropbox</text>
</svg>
