<?xml version="1.0" encoding="utf-8"?>
<!-- Generator: Adobe Illustrator 16.0.0, SVG Export Plug-In . SVG Version: 6.00 Build 0)  -->
<!DOCTYPE svg PUBLIC "-//W3C//DTD SVG 1.1//EN" "http://www.w3.org/Graphics/SVG/1.1/DTD/svg11.dtd">
<svg version="1.1" id="Layer_1" xmlns="http://www.w3.org/2000/svg" xmlns:xlink="http://www.w3.org/1999/xlink" x="0px" y="0px"
	 width="1147px" height="600px" viewBox="0 0 1147 600" enable-background="new 0 0 1147 600" xml:space="preserve">
<rect x="897.42" y="6.287" fill="#FF5259" stroke="#FFFFFF" stroke-width="3" stroke-miterlimit="10" width="239" height="139"/>
<rect x="897.42" y="145.287" fill="#FF5259" stroke="#FFFFFF" stroke-width="3" stroke-miterlimit="10" width="239" height="139"/>
<rect x="659.42" y="6.287" fill="#FF5259" stroke="#FFFFFF" stroke-width="3" stroke-miterlimit="10" width="238" height="139"/>
<rect x="659.42" y="145.287" fill="#FF9EA0" stroke="#FFFFFF" stroke-width="3" stroke-miterlimit="10" width="238" height="139"/>
<rect x="419.42" y="145.287" fill="#FF9EA0" stroke="#FFFFFF" stroke-width="3" stroke-miterlimit="10" width="240" height="139"/>
<rect x="419.42" y="6.287" fill="#FF9EA0" stroke="#FFFFFF" stroke-width="3" stroke-miterlimit="10" width="240" height="139"/>
<rect x="180.42" y="6.287" fill="#FF9EA0" stroke="#FFFFFF" stroke-width="3" stroke-miterlimit="10" width="239" height="139"/>
<rect x="659.42" y="284.287" fill="#FF9EA0" stroke="#FFFFFF" stroke-width="3" stroke-miterlimit="10" width="238" height="139"/>
<rect x="897.42" y="284.287" fill="#FF9EA0" stroke="#FFFFFF" stroke-width="3" stroke-miterlimit="10" width="239" height="139"/>
<rect x="897.42" y="423.287" fill="#FF9EA0" stroke="#FFFFFF" stroke-width="3" stroke-miterlimit="10" width="239" height="138"/>
<rect x="419.42" y="284.287" fill="#FFD4D5" stroke="#FFFFFF" stroke-width="3" stroke-miterlimit="10" width="240" height="139"/>
<rect x="180.42" y="145.287" fill="#FFD4D5" stroke="#FFFFFF" stroke-width="3" stroke-miterlimit="10" width="239" height="139"/>
<rect x="659.42" y="423.287" fill="#FFD4D5" stroke="#FFFFFF" stroke-width="3" stroke-miterlimit="10" width="238" height="138"/>
<rect x="419.42" y="423.287" fill="#FFEEEE" stroke="#FFFFFF" stroke-width="3" stroke-miterlimit="10" width="240" height="138"/>
<rect x="180.42" y="284.287" fill="#FFE9E9" stroke="#FFFFFF" stroke-width="3" stroke-miterlimit="10" width="239" height="139"/>
<rect x="180.42" y="423.287" fill="#FFEEEE" stroke="#FFFFFF" stroke-width="3" stroke-miterlimit="10" width="239" height="138"/>
<g enable-background="new    ">
	<path d="M239.896,586.966c-0.812-0.544-1.373-1.305-1.68-2.28c-0.308-0.976-0.462-2.2-0.462-3.672v-12.889h2.771v13.009
		c0,1.472,0.184,2.592,0.552,3.359c0.368,0.769,1.107,1.152,2.219,1.152s1.851-0.384,2.219-1.152
		c0.368-0.768,0.552-1.888,0.552-3.359v-13.009h2.745v12.889c0,1.472-0.154,2.696-0.461,3.672c-0.308,0.976-0.864,1.736-1.667,2.28
		c-0.804,0.544-1.933,0.815-3.387,0.815S240.708,587.51,239.896,586.966z"/>
	<path d="M252.774,586.27c-0.915-1.008-1.424-2.392-1.526-4.152l2.565-0.647c0.085,1.248,0.346,2.256,0.782,3.023
		c0.436,0.769,1.159,1.152,2.168,1.152c0.752,0,1.321-0.196,1.706-0.588s0.577-0.956,0.577-1.692c0-0.783-0.18-1.436-0.539-1.956
		c-0.359-0.52-0.932-1.116-1.719-1.788l-3.489-2.88c-0.702-0.592-1.21-1.22-1.526-1.884s-0.475-1.468-0.475-2.412
		c0-1.439,0.444-2.548,1.334-3.324c0.889-0.775,2.112-1.164,3.668-1.164c1.625,0,2.839,0.408,3.643,1.225
		c0.804,0.815,1.291,2.08,1.462,3.792l-2.462,0.624c-0.086-1.104-0.308-1.972-0.667-2.604c-0.359-0.632-0.992-0.947-1.898-0.947
		c-1.659,0-2.489,0.712-2.489,2.136c0,0.576,0.103,1.052,0.308,1.428s0.556,0.78,1.052,1.212l3.515,2.88
		c0.906,0.784,1.629,1.612,2.167,2.484c0.539,0.872,0.808,1.86,0.808,2.964c0,1.424-0.461,2.553-1.385,3.384
		c-0.923,0.832-2.121,1.248-3.591,1.248C255.019,587.781,253.688,587.277,252.774,586.27z"/>
	<path d="M263.998,587.565v-19.44h8.055v2.017h-5.156v6.432h4.182v1.92h-4.182v7.128h5.208v1.944H263.998z"/>
	<path d="M274.438,568.125h4.515c2.24,0,3.826,0.48,4.759,1.44c0.932,0.96,1.398,2.456,1.398,4.488v7.151
		c0,2.145-0.458,3.74-1.373,4.788c-0.915,1.049-2.433,1.572-4.553,1.572h-4.746V568.125z M278.979,585.621
		c1.009,0,1.74-0.184,2.193-0.552s0.735-0.867,0.847-1.5c0.111-0.632,0.167-1.588,0.167-2.868v-6.312
		c0-1.104-0.073-1.948-0.218-2.532c-0.146-0.584-0.449-1.016-0.911-1.296s-1.18-0.42-2.155-0.42h-1.565v15.479H278.979z"/>
	<path d="M293.832,568.125h4.771c1.881,0,3.275,0.396,4.182,1.188c0.906,0.792,1.359,2.021,1.359,3.684
		c0,2.48-0.992,3.849-2.976,4.104c1.231,0.272,2.129,0.812,2.694,1.62c0.564,0.808,0.846,1.908,0.846,3.3
		c0,1.744-0.44,3.104-1.321,4.08c-0.881,0.976-2.219,1.464-4.015,1.464h-5.541V568.125z M298.45,576.237
		c1.197,0,2.026-0.243,2.488-0.731s0.693-1.324,0.693-2.509c0-0.863-0.141-1.5-0.423-1.907c-0.282-0.408-0.706-0.668-1.27-0.78
		s-1.402-0.168-2.514-0.168h-0.692v6.096H298.45z M298.681,585.621c0.855,0,1.518-0.123,1.988-0.372
		c0.47-0.247,0.799-0.627,0.988-1.14c0.188-0.512,0.282-1.208,0.282-2.088c0-1.248-0.274-2.18-0.821-2.796
		c-0.547-0.616-1.437-0.924-2.668-0.924h-1.719v7.319H298.681z"/>
	<path d="M310.455,587.565v-6.864l-4.49-12.576h2.694l3.181,9.385l3.13-9.385h2.719l-4.464,12.576v6.864H310.455z"/>
	<path d="M325.487,587.565v-19.44h8.029v1.944h-5.131v6.48h3.977v1.92h-3.977v9.096H325.487z"/>
	<path d="M335.518,587.565v-19.44h8.056v2.017h-5.157v6.432h4.182v1.92h-4.182v7.128h5.208v1.944H335.518z"/>
	<path d="M348.652,587.565l-3.386-19.44h2.411l2.231,13.969l2.797-13.896h2.052l2.822,13.968l2.181-14.04h2.36l-3.335,19.44h-2.104
		l-2.899-14.4l-2.925,14.4H348.652z"/>
</g>
<g enable-background="new    ">
	<path d="M471.698,586.966c-0.812-0.544-1.373-1.305-1.681-2.28s-0.462-2.2-0.462-3.672v-12.889h2.771v13.009
		c0,1.472,0.184,2.592,0.552,3.359c0.367,0.769,1.107,1.152,2.219,1.152s1.852-0.384,2.22-1.152
		c0.367-0.768,0.551-1.888,0.551-3.359v-13.009h2.745v12.889c0,1.472-0.153,2.696-0.462,3.672c-0.308,0.976-0.863,1.736-1.667,2.28
		c-0.805,0.544-1.933,0.815-3.387,0.815C473.644,587.781,472.51,587.51,471.698,586.966z"/>
	<path d="M484.576,586.27c-0.916-1.008-1.424-2.392-1.526-4.152l2.564-0.647c0.086,1.248,0.347,2.256,0.783,3.023
		c0.436,0.769,1.158,1.152,2.167,1.152c0.753,0,1.321-0.196,1.706-0.588s0.577-0.956,0.577-1.692c0-0.783-0.18-1.436-0.538-1.956
		c-0.359-0.52-0.933-1.116-1.719-1.788l-3.489-2.88c-0.701-0.592-1.21-1.22-1.526-1.884s-0.475-1.468-0.475-2.412
		c0-1.439,0.444-2.548,1.334-3.324c0.889-0.775,2.112-1.164,3.669-1.164c1.624,0,2.838,0.408,3.643,1.225
		c0.804,0.815,1.291,2.08,1.462,3.792l-2.463,0.624c-0.086-1.104-0.308-1.972-0.667-2.604c-0.358-0.632-0.992-0.947-1.898-0.947
		c-1.659,0-2.488,0.712-2.488,2.136c0,0.576,0.103,1.052,0.308,1.428c0.206,0.376,0.556,0.78,1.053,1.212l3.514,2.88
		c0.906,0.784,1.63,1.612,2.168,2.484c0.539,0.872,0.809,1.86,0.809,2.964c0,1.424-0.462,2.553-1.386,3.384
		c-0.924,0.832-2.121,1.248-3.592,1.248C486.82,587.781,485.49,587.277,484.576,586.27z"/>
	<path d="M495.799,587.565v-19.44h8.056v2.017h-5.157v6.432h4.182v1.92h-4.182v7.128h5.208v1.944H495.799z"/>
	<path d="M506.24,568.125h4.515c2.24,0,3.827,0.48,4.759,1.44c0.933,0.96,1.398,2.456,1.398,4.488v7.151
		c0,2.145-0.458,3.74-1.372,4.788c-0.915,1.049-2.434,1.572-4.554,1.572h-4.746V568.125z M510.781,585.621
		c1.009,0,1.739-0.184,2.193-0.552c0.452-0.368,0.734-0.867,0.847-1.5c0.11-0.632,0.166-1.588,0.166-2.868v-6.312
		c0-1.104-0.072-1.948-0.218-2.532s-0.449-1.016-0.911-1.296c-0.461-0.28-1.18-0.42-2.154-0.42h-1.565v15.479H510.781z"/>
	<path d="M525.634,568.125h4.771c1.881,0,3.274,0.396,4.182,1.188c0.906,0.792,1.359,2.021,1.359,3.684
		c0,2.48-0.992,3.849-2.976,4.104c1.231,0.272,2.129,0.812,2.693,1.62s0.847,1.908,0.847,3.3c0,1.744-0.44,3.104-1.321,4.08
		s-2.219,1.464-4.015,1.464h-5.541V568.125z M530.251,576.237c1.197,0,2.027-0.243,2.489-0.731c0.461-0.488,0.692-1.324,0.692-2.509
		c0-0.863-0.142-1.5-0.424-1.907c-0.282-0.408-0.705-0.668-1.27-0.78s-1.402-0.168-2.514-0.168h-0.693v6.096H530.251z
		 M530.482,585.621c0.854,0,1.518-0.123,1.988-0.372c0.47-0.247,0.799-0.627,0.987-1.14c0.188-0.512,0.282-1.208,0.282-2.088
		c0-1.248-0.273-2.18-0.821-2.796c-0.547-0.616-1.437-0.924-2.668-0.924h-1.719v7.319H530.482z"/>
	<path d="M542.257,587.565v-6.864l-4.489-12.576h2.694l3.181,9.385l3.13-9.385h2.719l-4.464,12.576v6.864H542.257z"/>
	<path d="M558.2,586.27c-0.916-1.008-1.424-2.392-1.526-4.152l2.564-0.647c0.086,1.248,0.347,2.256,0.783,3.023
		c0.436,0.769,1.158,1.152,2.167,1.152c0.753,0,1.321-0.196,1.706-0.588s0.577-0.956,0.577-1.692c0-0.783-0.18-1.436-0.538-1.956
		c-0.359-0.52-0.933-1.116-1.719-1.788l-3.489-2.88c-0.701-0.592-1.21-1.22-1.526-1.884s-0.475-1.468-0.475-2.412
		c0-1.439,0.444-2.548,1.334-3.324c0.889-0.775,2.112-1.164,3.669-1.164c1.624,0,2.838,0.408,3.643,1.225
		c0.804,0.815,1.291,2.08,1.462,3.792l-2.463,0.624c-0.086-1.104-0.308-1.972-0.667-2.604c-0.358-0.632-0.992-0.947-1.898-0.947
		c-1.659,0-2.488,0.712-2.488,2.136c0,0.576,0.103,1.052,0.308,1.428c0.206,0.376,0.556,0.78,1.053,1.212l3.514,2.88
		c0.906,0.784,1.63,1.612,2.168,2.484c0.539,0.872,0.809,1.86,0.809,2.964c0,1.424-0.462,2.553-1.386,3.384
		c-0.924,0.832-2.121,1.248-3.592,1.248C560.444,587.781,559.114,587.277,558.2,586.27z"/>
	<path d="M570.359,586.161c-0.881-1.08-1.321-2.644-1.321-4.691v-7.368c0-2.017,0.444-3.544,1.334-4.584
		c0.889-1.04,2.343-1.561,4.361-1.561c2.018,0,3.467,0.524,4.348,1.572s1.321,2.572,1.321,4.572v7.392
		c0,2.017-0.444,3.568-1.334,4.656s-2.334,1.632-4.335,1.632C572.697,587.781,571.24,587.241,570.359,586.161z M576.914,584.758
		c0.376-0.592,0.564-1.488,0.564-2.688v-8.52c0-1.185-0.188-2.061-0.564-2.628c-0.377-0.568-1.104-0.853-2.181-0.853
		c-1.095,0-1.83,0.284-2.206,0.853c-0.377,0.567-0.564,1.443-0.564,2.628v8.52c0,1.2,0.188,2.097,0.564,2.688
		c0.376,0.592,1.111,0.888,2.206,0.888C575.811,585.646,576.537,585.35,576.914,584.758z"/>
	<path d="M583.198,587.565l0.385-19.44h2.848l3.669,15.769l3.694-15.769h2.821l0.385,19.44h-2.334l-0.231-14.112l-3.515,14.112
		h-1.642l-3.488-14.112l-0.231,14.112H583.198z"/>
	<path d="M600.182,587.565v-19.44h8.056v2.017h-5.157v6.432h4.182v1.92h-4.182v7.128h5.208v1.944H600.182z"/>
</g>
<g enable-background="new    ">
	<path d="M712.784,586.967c-0.812-0.544-1.373-1.305-1.681-2.28s-0.462-2.2-0.462-3.672v-12.889h2.771v13.009
		c0,1.472,0.184,2.592,0.552,3.359c0.367,0.769,1.107,1.152,2.219,1.152s1.852-0.384,2.22-1.152
		c0.367-0.768,0.551-1.888,0.551-3.359v-13.009h2.745v12.889c0,1.472-0.153,2.696-0.462,3.672c-0.308,0.976-0.863,1.736-1.667,2.28
		c-0.805,0.544-1.933,0.815-3.387,0.815C714.729,587.782,713.596,587.511,712.784,586.967z"/>
	<path d="M725.662,586.271c-0.916-1.008-1.424-2.392-1.526-4.152l2.564-0.647c0.086,1.248,0.347,2.256,0.783,3.023
		c0.436,0.769,1.158,1.152,2.167,1.152c0.753,0,1.321-0.196,1.706-0.588s0.577-0.956,0.577-1.692c0-0.783-0.18-1.436-0.538-1.956
		c-0.359-0.52-0.933-1.116-1.719-1.788l-3.489-2.88c-0.701-0.592-1.21-1.22-1.526-1.884s-0.475-1.468-0.475-2.412
		c0-1.439,0.444-2.548,1.334-3.324c0.889-0.775,2.112-1.164,3.669-1.164c1.624,0,2.838,0.408,3.643,1.225
		c0.804,0.815,1.291,2.08,1.462,3.792l-2.463,0.624c-0.086-1.104-0.308-1.972-0.667-2.604c-0.358-0.632-0.992-0.947-1.898-0.947
		c-1.659,0-2.488,0.712-2.488,2.136c0,0.576,0.103,1.052,0.308,1.428c0.206,0.376,0.556,0.78,1.053,1.212l3.514,2.88
		c0.906,0.784,1.63,1.612,2.168,2.484c0.539,0.872,0.809,1.86,0.809,2.964c0,1.424-0.462,2.553-1.386,3.384
		c-0.924,0.832-2.121,1.248-3.592,1.248C727.906,587.782,726.576,587.278,725.662,586.271z"/>
	<path d="M736.885,587.566v-19.44h8.056v2.017h-5.157v6.432h4.182v1.92h-4.182v7.128h5.208v1.944H736.885z"/>
	<path d="M747.326,568.126h4.515c2.24,0,3.827,0.48,4.759,1.44c0.933,0.96,1.398,2.456,1.398,4.488v7.151
		c0,2.145-0.458,3.74-1.372,4.788c-0.915,1.049-2.434,1.572-4.554,1.572h-4.746V568.126z M751.867,585.622
		c1.009,0,1.739-0.184,2.193-0.552c0.452-0.368,0.734-0.867,0.847-1.5c0.11-0.632,0.166-1.588,0.166-2.868v-6.312
		c0-1.104-0.072-1.948-0.218-2.532s-0.449-1.016-0.911-1.296c-0.461-0.28-1.18-0.42-2.154-0.42h-1.565v15.479H751.867z"/>
	<path d="M766.72,568.126h4.771c1.881,0,3.274,0.396,4.182,1.188c0.906,0.792,1.359,2.021,1.359,3.684
		c0,2.48-0.992,3.849-2.976,4.104c1.231,0.272,2.129,0.812,2.693,1.62s0.847,1.908,0.847,3.3c0,1.744-0.44,3.104-1.321,4.08
		s-2.219,1.464-4.015,1.464h-5.541V568.126z M771.337,576.238c1.197,0,2.027-0.243,2.489-0.731c0.461-0.488,0.692-1.324,0.692-2.509
		c0-0.863-0.142-1.5-0.424-1.907c-0.282-0.408-0.705-0.668-1.27-0.78s-1.402-0.168-2.514-0.168h-0.693v6.096H771.337z
		 M771.568,585.622c0.854,0,1.518-0.123,1.988-0.372c0.47-0.247,0.799-0.627,0.987-1.14c0.188-0.512,0.282-1.208,0.282-2.088
		c0-1.248-0.273-2.18-0.821-2.796c-0.547-0.616-1.437-0.924-2.668-0.924h-1.719v7.319H771.568z"/>
	<path d="M783.343,587.566v-6.864l-4.489-12.576h2.694l3.181,9.385l3.13-9.385h2.719l-4.464,12.576v6.864H783.343z"/>
	<path d="M798.323,587.566l0.385-19.44h2.848l3.669,15.769l3.694-15.769h2.821l0.385,19.44h-2.334l-0.231-14.112l-3.515,14.112
		h-1.642l-3.488-14.112l-0.231,14.112H798.323z"/>
	<path d="M814.178,587.566l4.412-19.44h2.797l4.438,19.44h-2.744l-0.949-4.896h-4.233l-1,4.896H814.178z M818.282,580.727h3.464
		l-1.745-8.76L818.282,580.727z"/>
	<path d="M827.928,587.566v-19.44h1.976l5.9,12.912v-12.912h2.411v19.44h-1.847l-5.978-13.272v13.272H827.928z"/>
	<path d="M844.653,587.566v-6.864l-4.489-12.576h2.694l3.181,9.385l3.13-9.385h2.719l-4.464,12.576v6.864H844.653z"/>
</g>
<g enable-background="new    ">
	<path d="M963.183,586.967c-0.812-0.544-1.373-1.305-1.681-2.28s-0.462-2.2-0.462-3.672v-12.889h2.771v13.009
		c0,1.472,0.184,2.592,0.552,3.359c0.367,0.769,1.107,1.152,2.219,1.152s1.852-0.384,2.22-1.152
		c0.367-0.768,0.551-1.888,0.551-3.359v-13.009h2.745v12.889c0,1.472-0.153,2.696-0.462,3.672c-0.308,0.976-0.863,1.736-1.667,2.28
		c-0.805,0.544-1.933,0.815-3.387,0.815C965.128,587.782,963.994,587.511,963.183,586.967z"/>
	<path d="M976.061,586.271c-0.916-1.008-1.424-2.392-1.526-4.152l2.564-0.647c0.086,1.248,0.347,2.256,0.783,3.023
		c0.436,0.769,1.158,1.152,2.167,1.152c0.753,0,1.321-0.196,1.706-0.588s0.577-0.956,0.577-1.692c0-0.783-0.18-1.436-0.538-1.956
		c-0.359-0.52-0.933-1.116-1.719-1.788l-3.489-2.88c-0.701-0.592-1.21-1.22-1.526-1.884s-0.475-1.468-0.475-2.412
		c0-1.439,0.444-2.548,1.334-3.324c0.889-0.775,2.112-1.164,3.669-1.164c1.624,0,2.838,0.408,3.643,1.225
		c0.804,0.815,1.291,2.08,1.462,3.792l-2.463,0.624c-0.086-1.104-0.308-1.972-0.667-2.604c-0.358-0.632-0.992-0.947-1.898-0.947
		c-1.659,0-2.488,0.712-2.488,2.136c0,0.576,0.103,1.052,0.308,1.428c0.206,0.376,0.556,0.78,1.053,1.212l3.514,2.88
		c0.906,0.784,1.63,1.612,2.168,2.484c0.539,0.872,0.809,1.86,0.809,2.964c0,1.424-0.462,2.553-1.386,3.384
		c-0.924,0.832-2.121,1.248-3.592,1.248C978.305,587.782,976.975,587.278,976.061,586.271z"/>
	<path d="M987.283,587.566v-19.44h8.056v2.017h-5.157v6.432h4.182v1.92h-4.182v7.128h5.208v1.944H987.283z"/>
	<path d="M997.725,568.126h4.515c2.24,0,3.827,0.48,4.759,1.44c0.933,0.96,1.398,2.456,1.398,4.488v7.151
		c0,2.145-0.458,3.74-1.372,4.788c-0.915,1.049-2.434,1.572-4.554,1.572h-4.746V568.126z M1002.266,585.622
		c1.009,0,1.739-0.184,2.193-0.552c0.452-0.368,0.734-0.867,0.847-1.5c0.11-0.632,0.166-1.588,0.166-2.868v-6.312
		c0-1.104-0.072-1.948-0.218-2.532s-0.449-1.016-0.911-1.296c-0.461-0.28-1.18-0.42-2.154-0.42h-1.565v15.479H1002.266z"/>
	<path d="M1017.118,568.126h4.771c1.881,0,3.274,0.396,4.182,1.188c0.906,0.792,1.359,2.021,1.359,3.684
		c0,2.48-0.992,3.849-2.976,4.104c1.231,0.272,2.129,0.812,2.693,1.62s0.847,1.908,0.847,3.3c0,1.744-0.44,3.104-1.321,4.08
		s-2.219,1.464-4.015,1.464h-5.541V568.126z M1021.735,576.238c1.197,0,2.027-0.243,2.489-0.731
		c0.461-0.488,0.692-1.324,0.692-2.509c0-0.863-0.142-1.5-0.424-1.907c-0.282-0.408-0.705-0.668-1.27-0.78s-1.402-0.168-2.514-0.168
		h-0.693v6.096H1021.735z M1021.967,585.622c0.854,0,1.518-0.123,1.988-0.372c0.47-0.247,0.799-0.627,0.987-1.14
		c0.188-0.512,0.282-1.208,0.282-2.088c0-1.248-0.273-2.18-0.821-2.796c-0.547-0.616-1.437-0.924-2.668-0.924h-1.719v7.319H1021.967
		z"/>
	<path d="M1033.741,587.566v-6.864l-4.489-12.576h2.694l3.181,9.385l3.13-9.385h2.719l-4.464,12.576v6.864H1033.741z"/>
	<path d="M1047.645,587.566l4.412-19.44h2.797l4.438,19.44h-2.744l-0.949-4.896h-4.233l-1,4.896H1047.645z M1051.749,580.727h3.464
		l-1.745-8.76L1051.749,580.727z"/>
	<path d="M1061.395,587.566v-19.44h2.898v17.496h5.311v1.944H1061.395z"/>
	<path d="M1071.579,587.566v-19.44h2.898v17.496h5.311v1.944H1071.579z"/>
</g>
<g enable-background="new    ">
	<path d="M105.878,491.688c-0.812-0.544-1.373-1.305-1.68-2.28c-0.308-0.976-0.462-2.2-0.462-3.672v-12.889h2.771v13.009
		c0,1.472,0.184,2.592,0.552,3.359c0.368,0.769,1.107,1.152,2.219,1.152s1.851-0.384,2.219-1.152
		c0.368-0.768,0.552-1.888,0.552-3.359v-13.009h2.745v12.889c0,1.472-0.154,2.696-0.461,3.672c-0.308,0.976-0.864,1.736-1.667,2.28
		c-0.804,0.544-1.933,0.815-3.387,0.815S106.69,492.231,105.878,491.688z"/>
	<path d="M118.756,490.991c-0.915-1.008-1.424-2.392-1.526-4.152l2.565-0.647c0.085,1.248,0.346,2.256,0.782,3.023
		c0.436,0.769,1.159,1.152,2.168,1.152c0.752,0,1.321-0.196,1.706-0.588s0.577-0.956,0.577-1.692c0-0.783-0.18-1.436-0.539-1.956
		c-0.359-0.52-0.932-1.116-1.719-1.788l-3.489-2.88c-0.702-0.592-1.21-1.22-1.526-1.884s-0.475-1.468-0.475-2.412
		c0-1.439,0.444-2.548,1.334-3.324c0.889-0.775,2.112-1.164,3.668-1.164c1.625,0,2.839,0.408,3.643,1.225
		c0.804,0.815,1.291,2.08,1.462,3.792l-2.462,0.624c-0.086-1.104-0.308-1.972-0.667-2.604c-0.359-0.632-0.992-0.947-1.898-0.947
		c-1.659,0-2.489,0.712-2.489,2.136c0,0.576,0.103,1.052,0.308,1.428s0.556,0.78,1.052,1.212l3.515,2.88
		c0.906,0.784,1.629,1.612,2.167,2.484c0.539,0.872,0.808,1.86,0.808,2.964c0,1.424-0.461,2.553-1.385,3.384
		c-0.923,0.832-2.121,1.248-3.591,1.248C121.001,492.503,119.671,491.999,118.756,490.991z"/>
	<path d="M129.98,492.287v-19.44h8.055v2.017h-5.156v6.432h4.182v1.92h-4.182v7.128h5.208v1.944H129.98z"/>
	<path d="M140.421,472.847h4.515c2.24,0,3.826,0.48,4.759,1.44c0.932,0.96,1.398,2.456,1.398,4.488v7.151
		c0,2.145-0.458,3.74-1.373,4.788c-0.915,1.049-2.433,1.572-4.553,1.572h-4.746V472.847z M144.961,490.343
		c1.009,0,1.74-0.184,2.193-0.552s0.735-0.867,0.847-1.5c0.111-0.632,0.167-1.588,0.167-2.868v-6.312
		c0-1.104-0.073-1.948-0.218-2.532c-0.146-0.584-0.449-1.016-0.911-1.296s-1.18-0.42-2.155-0.42h-1.565v15.479H144.961z"/>
</g>
<g enable-background="new    ">
	<path d="M82.471,501.646h4.182c2.104,0,3.646,0.404,4.63,1.213c0.983,0.808,1.475,2.124,1.475,3.947
		c0,2.496-0.855,4.008-2.565,4.536l2.95,9.744h-2.796l-2.719-9.12H85.37v9.12h-2.899V501.646z M86.473,510.022
		c1.248,0,2.142-0.231,2.681-0.695c0.539-0.464,0.808-1.304,0.808-2.521c0-0.8-0.094-1.428-0.282-1.884
		c-0.188-0.456-0.522-0.792-1-1.008c-0.479-0.216-1.154-0.324-2.026-0.324H85.37v6.432H86.473z"/>
	<path d="M94.656,521.087l4.413-19.44h2.796l4.438,19.44h-2.745l-0.949-4.896h-4.233l-1,4.896H94.656z M98.76,514.247h3.463
		l-1.745-8.76L98.76,514.247z"/>
	<path d="M108.406,501.646h4.182c2.104,0,3.646,0.404,4.63,1.213c0.983,0.808,1.475,2.124,1.475,3.947
		c0,2.496-0.855,4.008-2.565,4.536l2.95,9.744h-2.796l-2.719-9.12h-2.257v9.12h-2.899V501.646z M112.408,510.022
		c1.248,0,2.142-0.231,2.681-0.695c0.539-0.464,0.808-1.304,0.808-2.521c0-0.8-0.094-1.428-0.282-1.884
		c-0.188-0.456-0.522-0.792-1-1.008c-0.479-0.216-1.154-0.324-2.026-0.324h-1.283v6.432H112.408z"/>
	<path d="M121.72,521.087v-19.44h8.055v2.017h-5.156v6.432h4.182v1.92h-4.182v7.128h5.208v1.944H121.72z"/>
	<path d="M132.161,521.087v-19.44h2.899v17.496h5.31v1.944H132.161z"/>
	<path d="M144.783,521.087v-6.864l-4.49-12.576h2.694l3.181,9.385l3.13-9.385h2.719l-4.464,12.576v6.864H144.783z"/>
</g>
<g enable-background="new    ">
	<path d="M105.878,75.187c-0.812-0.543-1.373-1.304-1.68-2.28c-0.308-0.976-0.462-2.2-0.462-3.672V56.347h2.771v13.008
		c0,1.472,0.184,2.592,0.552,3.36c0.368,0.768,1.107,1.152,2.219,1.152s1.851-0.384,2.219-1.152c0.368-0.768,0.552-1.888,0.552-3.36
		V56.347h2.745v12.888c0,1.472-0.154,2.696-0.461,3.672c-0.308,0.976-0.864,1.736-1.667,2.28c-0.804,0.544-1.933,0.816-3.387,0.816
		S106.69,75.731,105.878,75.187z"/>
	<path d="M118.756,74.491c-0.915-1.008-1.424-2.392-1.526-4.152l2.565-0.648c0.085,1.248,0.346,2.256,0.782,3.024
		c0.436,0.768,1.159,1.152,2.168,1.152c0.752,0,1.321-0.196,1.706-0.588s0.577-0.956,0.577-1.692c0-0.784-0.18-1.436-0.539-1.956
		c-0.359-0.52-0.932-1.116-1.719-1.788l-3.489-2.88c-0.702-0.591-1.21-1.22-1.526-1.884c-0.316-0.664-0.475-1.468-0.475-2.412
		c0-1.44,0.444-2.548,1.334-3.324c0.889-0.776,2.112-1.164,3.668-1.164c1.625,0,2.839,0.408,3.643,1.224
		c0.804,0.816,1.291,2.08,1.462,3.792l-2.462,0.624c-0.086-1.104-0.308-1.972-0.667-2.604c-0.359-0.632-0.992-0.948-1.898-0.948
		c-1.659,0-2.489,0.712-2.489,2.136c0,0.576,0.103,1.052,0.308,1.428c0.205,0.376,0.556,0.78,1.052,1.212l3.515,2.88
		c0.906,0.784,1.629,1.612,2.167,2.484c0.539,0.872,0.808,1.86,0.808,2.964c0,1.424-0.461,2.552-1.385,3.384
		c-0.923,0.833-2.121,1.248-3.591,1.248C121.001,76.003,119.671,75.499,118.756,74.491z"/>
	<path d="M129.98,75.787v-19.44h8.055v2.016h-5.156v6.432h4.182v1.92h-4.182v7.128h5.208v1.944H129.98z"/>
	<path d="M140.421,56.347h4.515c2.24,0,3.826,0.48,4.759,1.44c0.932,0.96,1.398,2.456,1.398,4.488v7.152
		c0,2.144-0.458,3.74-1.373,4.788c-0.915,1.048-2.433,1.572-4.553,1.572h-4.746V56.347z M144.961,73.843
		c1.009,0,1.74-0.184,2.193-0.552c0.453-0.368,0.735-0.868,0.847-1.5c0.111-0.632,0.167-1.588,0.167-2.868v-6.312
		c0-1.104-0.073-1.948-0.218-2.532c-0.146-0.584-0.449-1.016-0.911-1.296c-0.462-0.28-1.18-0.42-2.155-0.42h-1.565v15.48H144.961z"
		/>
</g>
<g enable-background="new    ">
	<path d="M76.108,104.587l4.413-19.44h2.796l4.438,19.44H85.01l-0.949-4.896h-4.233l-1,4.896H76.108z M80.213,97.747h3.463
		l-1.745-8.76L80.213,97.747z"/>
	<path d="M89.858,104.587v-19.44h2.899v17.496h5.31v1.944H89.858z"/>
	<path d="M102.121,104.587l-3.386-19.44h2.412l2.232,13.968l2.796-13.896h2.052l2.822,13.968l2.181-14.04h2.36l-3.335,19.44h-2.104
		l-2.899-14.4l-2.924,14.4H102.121z"/>
	<path d="M116.256,104.587l4.413-19.44h2.796l4.438,19.44h-2.745l-0.949-4.896h-4.233l-1,4.896H116.256z M120.36,97.747h3.463
		l-1.745-8.76L120.36,97.747z"/>
	<path d="M132.648,104.587v-6.864l-4.49-12.576h2.694l3.181,9.384l3.13-9.384h2.719l-4.464,12.576v6.864H132.648z"/>
	<path d="M142.717,103.291c-0.915-1.008-1.424-2.392-1.526-4.152l2.565-0.648c0.085,1.248,0.346,2.256,0.782,3.024
		c0.436,0.768,1.159,1.152,2.168,1.152c0.752,0,1.321-0.196,1.706-0.588s0.577-0.956,0.577-1.692c0-0.784-0.18-1.436-0.539-1.956
		c-0.359-0.52-0.932-1.116-1.719-1.788l-3.489-2.88c-0.702-0.591-1.21-1.22-1.526-1.884c-0.316-0.664-0.475-1.468-0.475-2.412
		c0-1.44,0.444-2.548,1.334-3.324c0.889-0.776,2.112-1.164,3.668-1.164c1.625,0,2.839,0.408,3.643,1.224
		c0.804,0.816,1.291,2.08,1.462,3.792l-2.462,0.624c-0.086-1.104-0.308-1.972-0.667-2.604c-0.359-0.632-0.992-0.948-1.898-0.948
		c-1.659,0-2.489,0.712-2.489,2.136c0,0.576,0.103,1.052,0.308,1.428c0.205,0.376,0.556,0.78,1.052,1.212l3.515,2.88
		c0.906,0.784,1.629,1.612,2.167,2.484c0.539,0.872,0.808,1.86,0.808,2.964c0,1.424-0.461,2.552-1.385,3.384
		c-0.923,0.833-2.121,1.248-3.591,1.248C144.962,104.803,143.632,104.299,142.717,103.291z"/>
</g>
<g enable-background="new    ">
	<path d="M105.878,207.203c-0.812-0.543-1.373-1.304-1.68-2.28c-0.308-0.976-0.462-2.2-0.462-3.672v-12.888h2.771v13.008
		c0,1.472,0.184,2.592,0.552,3.36c0.368,0.768,1.107,1.152,2.219,1.152s1.851-0.384,2.219-1.152c0.368-0.768,0.552-1.888,0.552-3.36
		v-13.008h2.745v12.888c0,1.472-0.154,2.696-0.461,3.672c-0.308,0.976-0.864,1.736-1.667,2.28c-0.804,0.544-1.933,0.816-3.387,0.816
		S106.69,207.747,105.878,207.203z"/>
	<path d="M118.756,206.507c-0.915-1.008-1.424-2.392-1.526-4.152l2.565-0.648c0.085,1.248,0.346,2.256,0.782,3.024
		c0.436,0.768,1.159,1.152,2.168,1.152c0.752,0,1.321-0.196,1.706-0.588s0.577-0.956,0.577-1.692c0-0.784-0.18-1.436-0.539-1.956
		c-0.359-0.52-0.932-1.116-1.719-1.788l-3.489-2.88c-0.702-0.591-1.21-1.22-1.526-1.884c-0.316-0.664-0.475-1.468-0.475-2.412
		c0-1.44,0.444-2.548,1.334-3.324c0.889-0.776,2.112-1.164,3.668-1.164c1.625,0,2.839,0.408,3.643,1.224
		c0.804,0.816,1.291,2.08,1.462,3.792l-2.462,0.624c-0.086-1.104-0.308-1.972-0.667-2.604c-0.359-0.632-0.992-0.948-1.898-0.948
		c-1.659,0-2.489,0.712-2.489,2.136c0,0.576,0.103,1.052,0.308,1.428c0.205,0.376,0.556,0.78,1.052,1.212l3.515,2.88
		c0.906,0.784,1.629,1.612,2.167,2.484c0.539,0.872,0.808,1.86,0.808,2.964c0,1.424-0.461,2.552-1.385,3.384
		c-0.923,0.833-2.121,1.248-3.591,1.248C121.001,208.019,119.671,207.515,118.756,206.507z"/>
	<path d="M129.98,207.803v-19.44h8.055v2.016h-5.156v6.432h4.182v1.92h-4.182v7.128h5.208v1.944H129.98z"/>
	<path d="M140.421,188.363h4.515c2.24,0,3.826,0.48,4.759,1.44c0.932,0.96,1.398,2.456,1.398,4.488v7.152
		c0,2.144-0.458,3.74-1.373,4.788c-0.915,1.048-2.433,1.572-4.553,1.572h-4.746V188.363z M144.961,205.859
		c1.009,0,1.74-0.184,2.193-0.552c0.453-0.368,0.735-0.868,0.847-1.5c0.111-0.632,0.167-1.588,0.167-2.868v-6.312
		c0-1.104-0.073-1.948-0.218-2.532c-0.146-0.584-0.449-1.016-0.911-1.296c-0.462-0.28-1.18-0.42-2.155-0.42h-1.565v15.48H144.961z"
		/>
</g>
<g enable-background="new    ">
	<path d="M36.32,236.603v-19.44h8.03v1.944h-5.131v6.48h3.976v1.92h-3.976v9.096H36.32z"/>
	<path d="M46.351,217.163h4.182c2.104,0,3.646,0.404,4.63,1.212c0.983,0.808,1.475,2.124,1.475,3.948
		c0,2.496-0.855,4.008-2.565,4.536l2.95,9.744h-2.796l-2.719-9.12H49.25v9.12h-2.899V217.163z M50.353,225.539
		c1.248,0,2.142-0.232,2.681-0.696c0.539-0.464,0.808-1.304,0.808-2.52c0-0.8-0.094-1.428-0.282-1.884
		c-0.188-0.456-0.522-0.792-1-1.008c-0.479-0.216-1.154-0.324-2.026-0.324H49.25v6.432H50.353z"/>
	<path d="M59.665,236.603v-19.44h8.055v2.016h-5.156v6.432h4.182v1.92h-4.182v7.128h5.208v1.944H59.665z"/>
	<path d="M75.903,236.794l-0.488,0.024c-2.035,0-3.493-0.54-4.374-1.62c-0.881-1.08-1.321-2.644-1.321-4.692v-7.368
		c0-2.016,0.444-3.544,1.334-4.584c0.889-1.04,2.343-1.56,4.361-1.56s3.472,0.524,4.361,1.572c0.889,1.048,1.334,2.572,1.334,4.572
		v7.392c0,3.088-1.018,5.032-3.053,5.832c0.855,1.04,1.539,1.72,2.052,2.04l-0.462,2.136
		C78.605,240.059,77.356,238.811,75.903,236.794z M77.622,233.794c0.376-0.592,0.564-1.488,0.564-2.688v-8.52
		c0-1.184-0.188-2.06-0.564-2.628c-0.376-0.568-1.112-0.852-2.207-0.852s-1.83,0.284-2.206,0.852
		c-0.376,0.568-0.564,1.444-0.564,2.628v8.52c0,1.2,0.188,2.096,0.564,2.688c0.376,0.592,1.111,0.888,2.206,0.888
		S77.246,234.387,77.622,233.794z"/>
	<path d="M85.946,236.002c-0.812-0.543-1.373-1.304-1.68-2.28c-0.308-0.976-0.462-2.2-0.462-3.672v-12.888h2.771v13.008
		c0,1.472,0.184,2.592,0.552,3.36c0.368,0.768,1.107,1.152,2.219,1.152s1.851-0.384,2.219-1.152c0.368-0.768,0.552-1.888,0.552-3.36
		v-13.008h2.745v12.888c0,1.472-0.154,2.696-0.461,3.672c-0.308,0.976-0.864,1.736-1.667,2.28c-0.804,0.544-1.933,0.816-3.387,0.816
		S86.758,236.547,85.946,236.002z"/>
	<path d="M97.914,236.603v-19.44h8.055v2.016h-5.156v6.432h4.182v1.92h-4.182v7.128h5.208v1.944H97.914z"/>
	<path d="M108.354,236.603v-19.44h1.975l5.9,12.912v-12.912h2.412v19.44h-1.847l-5.977-13.272v13.272H108.354z"/>
	<path d="M124.029,236.603v-17.424h-3.771v-2.016h10.339v2.016h-3.669v17.424H124.029z"/>
	<path d="M132.161,236.603v-19.44h2.899v17.496h5.31v1.944H132.161z"/>
	<path d="M144.783,236.603v-6.864l-4.49-12.576h2.694l3.181,9.384l3.13-9.384h2.719l-4.464,12.576v6.864H144.783z"/>
</g>
<g enable-background="new    ">
	<path d="M105.878,340.574c-0.812-0.544-1.373-1.305-1.68-2.28c-0.308-0.976-0.462-2.2-0.462-3.672v-12.888h2.771v13.008
		c0,1.472,0.184,2.592,0.552,3.359c0.368,0.768,1.107,1.152,2.219,1.152s1.851-0.385,2.219-1.152
		c0.368-0.768,0.552-1.888,0.552-3.359v-13.008h2.745v12.888c0,1.472-0.154,2.696-0.461,3.672c-0.308,0.976-0.864,1.736-1.667,2.28
		c-0.804,0.544-1.933,0.815-3.387,0.815S106.69,341.118,105.878,340.574z"/>
	<path d="M118.756,339.878c-0.915-1.009-1.424-2.392-1.526-4.152l2.565-0.647c0.085,1.248,0.346,2.256,0.782,3.023
		s1.159,1.152,2.168,1.152c0.752,0,1.321-0.195,1.706-0.588s0.577-0.956,0.577-1.692c0-0.784-0.18-1.436-0.539-1.956
		c-0.359-0.52-0.932-1.115-1.719-1.787l-3.489-2.881c-0.702-0.592-1.21-1.22-1.526-1.884c-0.316-0.663-0.475-1.468-0.475-2.412
		c0-1.44,0.444-2.548,1.334-3.323c0.889-0.776,2.112-1.164,3.668-1.164c1.625,0,2.839,0.407,3.643,1.224
		c0.804,0.815,1.291,2.08,1.462,3.792l-2.462,0.624c-0.086-1.104-0.308-1.972-0.667-2.604c-0.359-0.632-0.992-0.947-1.898-0.947
		c-1.659,0-2.489,0.711-2.489,2.136c0,0.575,0.103,1.052,0.308,1.428s0.556,0.78,1.052,1.212l3.515,2.881
		c0.906,0.783,1.629,1.611,2.167,2.483c0.539,0.872,0.808,1.86,0.808,2.964c0,1.424-0.461,2.553-1.385,3.384
		c-0.923,0.833-2.121,1.248-3.591,1.248C121.001,341.39,119.671,340.886,118.756,339.878z"/>
	<path d="M129.98,341.174v-19.439h8.055v2.016h-5.156v6.432h4.182v1.92h-4.182v7.129h5.208v1.943H129.98z"/>
	<path d="M140.421,321.734h4.515c2.24,0,3.826,0.479,4.759,1.439c0.932,0.96,1.398,2.456,1.398,4.488v7.152
		c0,2.144-0.458,3.74-1.373,4.787c-0.915,1.049-2.433,1.572-4.553,1.572h-4.746V321.734z M144.961,339.23
		c1.009,0,1.74-0.185,2.193-0.553c0.453-0.367,0.735-0.867,0.847-1.5c0.111-0.632,0.167-1.588,0.167-2.867v-6.312
		c0-1.104-0.073-1.947-0.218-2.532c-0.146-0.584-0.449-1.016-0.911-1.296c-0.462-0.279-1.18-0.42-2.155-0.42h-1.565v15.48H144.961z"
		/>
</g>
<g enable-background="new    ">
	<path d="M11.553,368.57c-0.881-1.08-1.321-2.645-1.321-4.693v-7.367c0-2.016,0.444-3.544,1.334-4.584
		c0.889-1.04,2.343-1.561,4.361-1.561s3.467,0.524,4.349,1.572c0.88,1.049,1.321,2.572,1.321,4.572v7.393
		c0,2.016-0.445,3.567-1.334,4.655c-0.889,1.089-2.334,1.632-4.335,1.632C13.891,370.189,12.433,369.649,11.553,368.57z
		 M18.107,367.166c0.376-0.592,0.564-1.488,0.564-2.688v-8.521c0-1.184-0.188-2.059-0.564-2.627
		c-0.376-0.568-1.103-0.853-2.181-0.853c-1.095,0-1.83,0.284-2.206,0.853c-0.376,0.568-0.564,1.443-0.564,2.627v8.521
		c0,1.2,0.188,2.097,0.564,2.688c0.376,0.592,1.111,0.888,2.206,0.888C17.004,368.054,17.73,367.758,18.107,367.166z"/>
	<path d="M25.315,368.474c-0.838-1.144-1.257-2.724-1.257-4.74v-6.864c0-2.127,0.41-3.744,1.231-4.848
		c0.821-1.104,2.274-1.656,4.361-1.656c1.864,0,3.203,0.473,4.015,1.416c0.812,0.945,1.218,2.336,1.218,4.176v1.537H32.14v-1.369
		c0-0.895-0.043-1.584-0.128-2.063c-0.086-0.479-0.304-0.864-0.654-1.151c-0.351-0.289-0.911-0.433-1.68-0.433
		c-0.787,0-1.373,0.156-1.757,0.468c-0.385,0.312-0.637,0.744-0.757,1.297c-0.12,0.551-0.18,1.291-0.18,2.219v7.705
		c0,0.992,0.085,1.768,0.257,2.328c0.17,0.56,0.449,0.959,0.833,1.199s0.919,0.36,1.604,0.36c0.735,0,1.283-0.151,1.642-0.456
		c0.359-0.304,0.586-0.721,0.68-1.248c0.094-0.527,0.141-1.248,0.141-2.16v-1.439h2.745v1.439c0,1.937-0.389,3.42-1.167,4.452
		c-0.779,1.032-2.134,1.548-4.066,1.548C27.599,370.189,26.153,369.617,25.315,368.474z"/>
	<path d="M38.527,368.474c-0.838-1.144-1.257-2.724-1.257-4.74v-6.864c0-2.127,0.41-3.744,1.231-4.848
		c0.821-1.104,2.274-1.656,4.361-1.656c1.864,0,3.203,0.473,4.015,1.416c0.812,0.945,1.218,2.336,1.218,4.176v1.537h-2.745v-1.369
		c0-0.895-0.043-1.584-0.128-2.063c-0.086-0.479-0.304-0.864-0.654-1.151c-0.351-0.289-0.911-0.433-1.68-0.433
		c-0.787,0-1.373,0.156-1.757,0.468c-0.385,0.312-0.637,0.744-0.757,1.297c-0.12,0.551-0.18,1.291-0.18,2.219v7.705
		c0,0.992,0.085,1.768,0.257,2.328c0.17,0.56,0.449,0.959,0.833,1.199s0.919,0.36,1.604,0.36c0.735,0,1.283-0.151,1.642-0.456
		c0.359-0.304,0.586-0.721,0.68-1.248c0.094-0.527,0.141-1.248,0.141-2.16v-1.439h2.745v1.439c0,1.937-0.389,3.42-1.167,4.452
		c-0.779,1.032-2.134,1.548-4.066,1.548C40.81,370.189,39.365,369.617,38.527,368.474z"/>
	<path d="M49.737,369.974l4.413-19.44h2.796l4.438,19.44h-2.745l-0.949-4.896h-4.233l-1,4.896H49.737z M53.842,363.134h3.463
		l-1.745-8.761L53.842,363.134z"/>
	<path d="M64.398,368.678c-0.915-1.008-1.424-2.393-1.526-4.152l2.565-0.648c0.085,1.248,0.346,2.257,0.782,3.025
		c0.436,0.768,1.159,1.151,2.168,1.151c0.752,0,1.321-0.196,1.706-0.588s0.577-0.956,0.577-1.692c0-0.783-0.18-1.436-0.539-1.955
		c-0.359-0.521-0.932-1.117-1.719-1.789l-3.489-2.88c-0.702-0.591-1.21-1.22-1.526-1.884s-0.475-1.468-0.475-2.412
		c0-1.439,0.444-2.548,1.334-3.324c0.889-0.775,2.112-1.164,3.668-1.164c1.625,0,2.839,0.408,3.643,1.225
		c0.804,0.816,1.291,2.08,1.462,3.792l-2.462,0.624c-0.086-1.104-0.308-1.973-0.667-2.604c-0.359-0.633-0.992-0.949-1.898-0.949
		c-1.659,0-2.489,0.713-2.489,2.137c0,0.576,0.103,1.053,0.308,1.428c0.205,0.376,0.556,0.78,1.052,1.212l3.515,2.88
		c0.906,0.784,1.629,1.612,2.167,2.484c0.539,0.872,0.808,1.859,0.808,2.964c0,1.425-0.461,2.552-1.385,3.384
		c-0.923,0.832-2.121,1.248-3.591,1.248C66.643,370.189,65.313,369.686,64.398,368.678z"/>
	<path d="M75.775,369.974v-19.44h2.848v19.44H75.775z"/>
	<path d="M82.92,368.57c-0.881-1.08-1.321-2.645-1.321-4.693v-7.367c0-2.016,0.444-3.544,1.334-4.584
		c0.889-1.04,2.343-1.561,4.361-1.561s3.467,0.524,4.349,1.572c0.88,1.049,1.321,2.572,1.321,4.572v7.393
		c0,2.016-0.445,3.567-1.334,4.655c-0.889,1.089-2.334,1.632-4.335,1.632C85.258,370.189,83.8,369.649,82.92,368.57z
		 M89.474,367.166c0.376-0.592,0.564-1.488,0.564-2.688v-8.521c0-1.184-0.188-2.059-0.564-2.627
		c-0.376-0.568-1.103-0.853-2.181-0.853c-1.095,0-1.83,0.284-2.206,0.853c-0.376,0.568-0.564,1.443-0.564,2.627v8.521
		c0,1.2,0.188,2.097,0.564,2.688c0.376,0.592,1.111,0.888,2.206,0.888C88.371,368.054,89.098,367.758,89.474,367.166z"/>
	<path d="M95.81,369.974v-19.44h1.975l5.9,12.912v-12.912h2.412v19.44h-1.847l-5.977-13.272v13.272H95.81z"/>
	<path d="M108.227,369.974l4.413-19.44h2.796l4.438,19.44h-2.745l-0.949-4.896h-4.233l-1,4.896H108.227z M112.331,363.134h3.463
		l-1.745-8.761L112.331,363.134z"/>
	<path d="M121.977,369.974v-19.44h2.899v17.496h5.31v1.944H121.977z"/>
	<path d="M132.161,369.974v-19.44h2.899v17.496h5.31v1.944H132.161z"/>
	<path d="M144.782,369.974v-6.864l-4.49-12.576h2.694l3.181,9.385l3.13-9.385h2.719l-4.464,12.576v6.864H144.782z"/>
</g>
<g enable-background="new    ">
	<path d="M927.401,65.871l0.36-19.44h2.664l3.432,15.769l3.456-15.769h2.64l0.36,19.44h-2.185l-0.215-14.112l-3.289,14.112h-1.535
		l-3.264-14.112l-0.217,14.112H927.401z"/>
	<path d="M943.241,49.936v-2.688h2.568v2.688H943.241z M943.241,65.871V51.999h2.568v13.872H943.241z"/>
	<path d="M949.841,65.403c-0.592-0.44-0.996-1.057-1.212-1.849s-0.324-1.796-0.324-3.012v-3.191c0-1.248,0.108-2.272,0.324-3.072
		s0.62-1.412,1.212-1.836s1.432-0.637,2.521-0.637c0.992,0,1.764,0.16,2.315,0.48s0.937,0.796,1.152,1.428
		c0.216,0.633,0.323,1.452,0.323,2.46v0.816h-2.328v-0.84c0-0.912-0.1-1.548-0.299-1.908c-0.201-0.36-0.58-0.54-1.141-0.54
		c-0.432,0-0.752,0.096-0.96,0.288c-0.208,0.191-0.353,0.504-0.432,0.936c-0.081,0.433-0.12,1.064-0.12,1.896v4.368
		c0,0.8,0.048,1.412,0.145,1.836c0.096,0.424,0.252,0.72,0.467,0.888c0.217,0.168,0.524,0.252,0.925,0.252
		c0.591,0,0.976-0.195,1.151-0.588c0.176-0.392,0.264-0.996,0.264-1.812v-1.129h2.328v0.96c0,1.505-0.275,2.625-0.828,3.36
		c-0.551,0.736-1.539,1.104-2.963,1.104C951.272,66.063,950.433,65.844,949.841,65.403z"/>
	<path d="M958.505,51.999h2.567v1.968c0.48-0.783,0.973-1.336,1.477-1.655c0.504-0.32,1.035-0.48,1.596-0.48
		c0.145,0,0.279,0.008,0.408,0.024v2.832c-0.512-0.192-0.984-0.288-1.416-0.288c-0.416,0-0.788,0.1-1.116,0.3
		s-0.644,0.548-0.948,1.044v10.128h-2.567V51.999z"/>
	<path d="M966.797,64.755c-0.616-0.872-0.924-2.14-0.924-3.804v-4.032c0-1.664,0.308-2.932,0.924-3.804
		c0.615-0.872,1.66-1.309,3.132-1.309c1.456,0,2.492,0.437,3.108,1.309c0.615,0.872,0.924,2.14,0.924,3.804v4.032
		c0,1.664-0.309,2.932-0.924,3.804c-0.616,0.872-1.652,1.309-3.108,1.309C968.457,66.063,967.412,65.627,966.797,64.755z
		 M970.938,63.759c0.207-0.271,0.336-0.607,0.383-1.008c0.049-0.399,0.072-0.943,0.072-1.632v-4.344
		c0-0.688-0.023-1.236-0.072-1.645c-0.047-0.408-0.176-0.747-0.383-1.02c-0.209-0.272-0.545-0.408-1.009-0.408
		s-0.804,0.136-1.021,0.408c-0.215,0.272-0.348,0.611-0.396,1.02s-0.071,0.956-0.071,1.645v4.344c0,0.688,0.023,1.232,0.071,1.632
		c0.048,0.4,0.181,0.736,0.396,1.008c0.217,0.272,0.557,0.408,1.021,0.408S970.729,64.031,970.938,63.759z"/>
	<path d="M976.805,65.007c-0.696-0.704-1.092-1.647-1.188-2.832l2.136-0.647c0.111,0.896,0.315,1.56,0.611,1.992
		c0.296,0.432,0.716,0.647,1.261,0.647c0.447,0,0.815-0.14,1.104-0.42c0.288-0.279,0.432-0.636,0.432-1.068
		c0-0.72-0.376-1.399-1.128-2.04l-2.376-2.04c-0.544-0.464-0.964-0.947-1.26-1.451s-0.443-1.124-0.443-1.86
		c0-1.104,0.319-1.96,0.96-2.568c0.64-0.607,1.512-0.912,2.615-0.912c1.057,0,1.885,0.341,2.484,1.021
		c0.6,0.681,0.948,1.557,1.044,2.628l-1.729,0.648c-0.111-0.784-0.296-1.381-0.552-1.788c-0.256-0.408-0.64-0.612-1.151-0.612
		c-0.417,0-0.753,0.136-1.009,0.408s-0.376,0.608-0.359,1.008c0,0.528,0.231,0.992,0.695,1.392l2.448,2.257
		c0.608,0.544,1.088,1.104,1.44,1.68c0.352,0.576,0.527,1.264,0.527,2.063c0,1.152-0.344,2.032-1.031,2.641
		c-0.688,0.608-1.624,0.912-2.809,0.912C978.408,66.063,977.501,65.711,976.805,65.007z"/>
	<path d="M985.948,64.755c-0.616-0.872-0.924-2.14-0.924-3.804v-4.032c0-1.664,0.308-2.932,0.924-3.804
		c0.615-0.872,1.66-1.309,3.132-1.309c1.456,0,2.492,0.437,3.108,1.309c0.615,0.872,0.924,2.14,0.924,3.804v4.032
		c0,1.664-0.309,2.932-0.924,3.804c-0.616,0.872-1.652,1.309-3.108,1.309C987.608,66.063,986.563,65.627,985.948,64.755z
		 M990.088,63.759c0.208-0.271,0.336-0.607,0.385-1.008c0.048-0.399,0.071-0.943,0.071-1.632v-4.344
		c0-0.688-0.023-1.236-0.071-1.645c-0.049-0.408-0.177-0.747-0.385-1.02s-0.544-0.408-1.008-0.408s-0.804,0.136-1.02,0.408
		c-0.217,0.272-0.349,0.611-0.396,1.02s-0.072,0.956-0.072,1.645v4.344c0,0.688,0.024,1.232,0.072,1.632
		c0.048,0.4,0.18,0.736,0.396,1.008c0.216,0.272,0.556,0.408,1.02,0.408S989.88,64.031,990.088,63.759z"/>
	<path d="M996.28,53.896h-1.656v-1.896h1.656v-0.72c0-0.96,0.071-1.732,0.216-2.316c0.144-0.584,0.436-1.035,0.876-1.355
		c0.439-0.32,1.076-0.48,1.908-0.48c0.367,0,0.928,0.04,1.68,0.12v1.92c-0.128-0.016-0.292-0.04-0.492-0.072
		c-0.2-0.031-0.356-0.048-0.468-0.048c-0.464,0-0.772,0.148-0.924,0.444c-0.152,0.296-0.229,0.748-0.229,1.355v1.152h2.112v1.896
		h-2.112v11.976h-2.567V53.896z"/>
	<path d="M1003.769,65.235c-0.464-0.553-0.704-1.38-0.72-2.484v-9.048h-1.464v-1.704h1.464v-4.056h2.567v4.056h2.232v1.704h-2.232
		v8.88c0,0.561,0.088,0.952,0.265,1.176c0.176,0.225,0.512,0.336,1.008,0.336c0.32,0,0.632-0.023,0.936-0.071v1.896
		c-0.64,0.096-1.231,0.145-1.775,0.145C1004.992,66.063,1004.232,65.787,1003.769,65.235z"/>
	<path d="M1016.308,64.575c-0.856-1.008-1.332-2.392-1.429-4.152l2.4-0.647c0.08,1.248,0.324,2.256,0.732,3.023
		c0.407,0.769,1.083,1.152,2.027,1.152c0.704,0,1.236-0.196,1.597-0.588c0.359-0.392,0.54-0.956,0.54-1.692
		c0-0.783-0.168-1.436-0.505-1.956c-0.336-0.52-0.872-1.116-1.607-1.788l-3.264-2.88c-0.656-0.592-1.133-1.22-1.429-1.884
		s-0.443-1.468-0.443-2.412c0-1.439,0.415-2.548,1.248-3.324c0.831-0.775,1.976-1.164,3.432-1.164c1.52,0,2.655,0.408,3.408,1.225
		c0.752,0.815,1.208,2.08,1.368,3.792l-2.305,0.624c-0.08-1.104-0.288-1.972-0.624-2.604c-0.336-0.632-0.928-0.947-1.775-0.947
		c-1.553,0-2.328,0.712-2.328,2.136c0,0.576,0.096,1.052,0.288,1.428c0.191,0.376,0.52,0.78,0.983,1.212l3.288,2.88
		c0.848,0.784,1.524,1.612,2.028,2.484s0.756,1.86,0.756,2.964c0,1.424-0.432,2.553-1.296,3.384
		c-0.864,0.832-1.984,1.248-3.36,1.248C1018.407,66.087,1017.163,65.583,1016.308,64.575z"/>
	<path d="M1026.664,46.431h2.567v7.009c1.152-1.088,2.312-1.633,3.48-1.633c0.752,0,1.284,0.272,1.596,0.816
		c0.312,0.544,0.469,1.216,0.469,2.016v11.232h-2.568V55.383c0-0.527-0.08-0.92-0.24-1.176s-0.448-0.384-0.864-0.384
		c-0.56,0-1.184,0.304-1.872,0.912v11.136h-2.567V46.431z"/>
	<path d="M1038.34,65.607c-0.425-0.304-0.756-0.704-0.996-1.2s-0.36-1.016-0.36-1.561c0-1.088,0.232-1.972,0.696-2.651
		s1.052-1.216,1.764-1.608c0.712-0.392,1.716-0.852,3.013-1.38v-0.984c0-0.911-0.093-1.556-0.276-1.932
		c-0.185-0.376-0.557-0.563-1.116-0.563c-0.976,0-1.464,0.656-1.464,1.968v0.695l-2.544-0.096l0.023-0.504
		c0.08-1.392,0.469-2.403,1.164-3.036c0.696-0.632,1.692-0.948,2.988-0.948c1.328,0,2.292,0.364,2.893,1.093
		c0.6,0.728,0.899,1.828,0.899,3.3v6.336c0,1.04,0.08,2.152,0.24,3.336h-2.353c-0.176-0.912-0.287-1.592-0.336-2.04
		c-0.191,0.624-0.523,1.152-0.996,1.584c-0.472,0.432-1.076,0.648-1.812,0.648C1039.239,66.063,1038.764,65.911,1038.34,65.607z
		 M1041.76,63.459c0.319-0.264,0.552-0.516,0.696-0.756v-3.936c-0.705,0.416-1.232,0.74-1.584,0.972
		c-0.353,0.232-0.66,0.544-0.925,0.936c-0.264,0.393-0.396,0.853-0.396,1.38c0,0.576,0.104,1.021,0.312,1.332
		c0.208,0.312,0.512,0.469,0.912,0.469C1041.111,63.855,1041.439,63.723,1041.76,63.459z"/>
	<path d="M1047.567,51.999h2.567v1.968c0.48-0.783,0.973-1.336,1.477-1.655c0.504-0.32,1.035-0.48,1.596-0.48
		c0.145,0,0.28,0.008,0.408,0.024v2.832c-0.513-0.192-0.984-0.288-1.416-0.288c-0.416,0-0.788,0.1-1.116,0.3
		s-0.644,0.548-0.948,1.044v10.128h-2.567V51.999z"/>
	<path d="M1056.543,65.451c-0.592-0.408-1.008-1.012-1.248-1.812c-0.239-0.8-0.359-1.839-0.359-3.119v-3.168
		c0-1.921,0.3-3.324,0.899-4.213c0.601-0.888,1.668-1.332,3.204-1.332c1.12,0,1.964,0.232,2.532,0.696
		c0.567,0.465,0.944,1.116,1.128,1.956s0.276,1.973,0.276,3.396v1.128h-5.473v1.848c0,0.832,0.021,1.456,0.061,1.872
		s0.168,0.765,0.384,1.044c0.216,0.28,0.572,0.42,1.068,0.42c0.56,0,0.939-0.188,1.14-0.563s0.3-0.948,0.3-1.717v-0.84h2.496v0.528
		c0,1.456-0.312,2.568-0.936,3.336s-1.616,1.152-2.977,1.152C1057.967,66.063,1057.135,65.859,1056.543,65.451z M1060.455,57.591
		v-1.248c0-0.943-0.092-1.62-0.275-2.027c-0.185-0.408-0.572-0.612-1.164-0.612c-0.417,0-0.732,0.096-0.948,0.288
		c-0.216,0.191-0.364,0.508-0.444,0.948c-0.08,0.439-0.12,1.076-0.12,1.907v0.744H1060.455z"/>
	<path d="M1065.519,46.431h4.824c1.68,0,2.9,0.456,3.66,1.368s1.14,2.248,1.14,4.008c0,1.584-0.408,2.816-1.224,3.696
		c-0.816,0.88-2,1.32-3.552,1.32h-2.137v9.048h-2.712V46.431z M1069.479,54.879c0.8,0,1.42-0.088,1.86-0.264
		c0.439-0.176,0.756-0.48,0.948-0.912c0.191-0.432,0.288-1.056,0.288-1.872c0-0.992-0.072-1.72-0.217-2.184
		c-0.144-0.464-0.428-0.792-0.852-0.984s-1.092-0.288-2.004-0.288h-1.272v6.504H1069.479z"/>
	<path d="M1077.363,64.755c-0.616-0.872-0.924-2.14-0.924-3.804v-4.032c0-1.664,0.308-2.932,0.924-3.804
		c0.615-0.872,1.66-1.309,3.132-1.309c1.456,0,2.492,0.437,3.108,1.309c0.615,0.872,0.924,2.14,0.924,3.804v4.032
		c0,1.664-0.309,2.932-0.924,3.804c-0.616,0.872-1.652,1.309-3.108,1.309C1079.023,66.063,1077.979,65.627,1077.363,64.755z
		 M1081.503,63.759c0.208-0.271,0.336-0.607,0.385-1.008c0.048-0.399,0.071-0.943,0.071-1.632v-4.344
		c0-0.688-0.023-1.236-0.071-1.645c-0.049-0.408-0.177-0.747-0.385-1.02s-0.544-0.408-1.008-0.408s-0.804,0.136-1.02,0.408
		c-0.217,0.272-0.349,0.611-0.396,1.02s-0.072,0.956-0.072,1.645v4.344c0,0.688,0.024,1.232,0.072,1.632
		c0.048,0.4,0.18,0.736,0.396,1.008c0.216,0.272,0.556,0.408,1.02,0.408S1081.295,64.031,1081.503,63.759z"/>
	<path d="M1087.047,49.936v-2.688h2.568v2.688H1087.047z M1087.047,65.871V51.999h2.568v13.872H1087.047z"/>
	<path d="M1092.375,51.999h2.568v1.368c1.104-1.04,2.231-1.561,3.384-1.561c0.752,0,1.288,0.272,1.608,0.816
		c0.319,0.544,0.479,1.216,0.479,2.016v11.232h-2.568V55.383c0-0.527-0.08-0.92-0.239-1.176c-0.16-0.256-0.448-0.384-0.864-0.384
		c-0.513,0-1.112,0.288-1.8,0.864v11.184h-2.568V51.999z"/>
	<path d="M1104.327,65.235c-0.464-0.553-0.704-1.38-0.72-2.484v-9.048h-1.464v-1.704h1.464v-4.056h2.567v4.056h2.232v1.704h-2.232
		v8.88c0,0.561,0.088,0.952,0.265,1.176c0.176,0.225,0.512,0.336,1.008,0.336c0.32,0,0.632-0.023,0.936-0.071v1.896
		c-0.64,0.096-1.231,0.145-1.775,0.145C1105.551,66.063,1104.791,65.787,1104.327,65.235z"/>
</g>
<g enable-background="new    ">
	<path d="M479.537,360.325v-19.44h7.536v2.017h-4.824v6.432h3.912v1.92h-3.912v7.128h4.872v1.944H479.537z"/>
	<path d="M489.089,346.453h2.376v1.32c0.464-0.512,0.972-0.9,1.524-1.164c0.552-0.265,1.132-0.396,1.74-0.396
		c1.184,0,1.936,0.585,2.256,1.752c0.96-1.167,2.112-1.752,3.456-1.752c0.72,0,1.308,0.265,1.764,0.792
		c0.456,0.528,0.684,1.337,0.684,2.424v10.896h-2.352v-10.728c0-0.608-0.096-1.045-0.288-1.309s-0.472-0.396-0.84-0.396
		c-0.369,0-0.749,0.1-1.14,0.3c-0.392,0.2-0.756,0.477-1.092,0.828v0.407v10.896h-2.352v-10.728c0-0.608-0.096-1.045-0.288-1.309
		c-0.192-0.264-0.472-0.396-0.84-0.396s-0.744,0.1-1.128,0.3c-0.384,0.2-0.752,0.477-1.104,0.828v11.304h-2.376V346.453z"/>
	<path d="M506.477,360.062c-0.424-0.304-0.756-0.704-0.996-1.2c-0.24-0.496-0.36-1.016-0.36-1.561c0-1.088,0.232-1.972,0.696-2.651
		c0.464-0.68,1.052-1.216,1.764-1.608c0.712-0.392,1.716-0.852,3.012-1.38v-0.984c0-0.911-0.092-1.556-0.276-1.932
		c-0.184-0.376-0.556-0.563-1.116-0.563c-0.976,0-1.464,0.656-1.464,1.968v0.695l-2.544-0.096l0.024-0.504
		c0.08-1.392,0.468-2.403,1.164-3.036c0.696-0.632,1.692-0.948,2.988-0.948c1.328,0,2.292,0.364,2.892,1.093
		c0.6,0.728,0.9,1.828,0.9,3.3v6.336c0,1.04,0.08,2.152,0.24,3.336h-2.352c-0.176-0.912-0.288-1.592-0.336-2.04
		c-0.192,0.624-0.524,1.152-0.996,1.584c-0.472,0.432-1.076,0.648-1.812,0.648C507.377,360.518,506.9,360.365,506.477,360.062z
		 M509.897,357.913c0.32-0.264,0.552-0.516,0.696-0.756v-3.936c-0.704,0.416-1.232,0.74-1.584,0.972
		c-0.352,0.232-0.66,0.544-0.924,0.936c-0.264,0.393-0.396,0.853-0.396,1.38c0,0.576,0.104,1.021,0.312,1.332
		c0.208,0.312,0.512,0.469,0.912,0.469C509.249,358.31,509.577,358.177,509.897,357.913z"/>
	<path d="M515.8,344.39v-2.688h2.568v2.688H515.8z M515.8,360.325v-13.872h2.568v13.872H515.8z"/>
	<path d="M521.369,360.325v-19.44h2.568v19.44H521.369z"/>
	<path d="M533.152,358.825c-0.784-1.144-1.176-2.724-1.176-4.74v-6.863c0-2.128,0.384-3.744,1.151-4.849
		c0.769-1.104,2.128-1.656,4.08-1.656c1.744,0,2.996,0.473,3.756,1.416c0.76,0.944,1.141,2.337,1.141,4.177v1.535h-2.568v-1.367
		c0-0.896-0.04-1.584-0.12-2.064c-0.08-0.479-0.284-0.864-0.611-1.152c-0.328-0.287-0.853-0.432-1.572-0.432
		c-0.736,0-1.284,0.156-1.645,0.468c-0.359,0.312-0.596,0.744-0.708,1.296c-0.111,0.553-0.168,1.293-0.168,2.221v7.704
		c0,0.992,0.08,1.768,0.24,2.327c0.16,0.561,0.42,0.961,0.78,1.2c0.359,0.24,0.859,0.36,1.5,0.36c0.688,0,1.2-0.152,1.536-0.456
		s0.548-0.72,0.636-1.248s0.132-1.248,0.132-2.16v-1.439h2.568v1.439c0,1.937-0.364,3.42-1.092,4.452
		c-0.729,1.032-1.997,1.548-3.805,1.548C535.288,360.541,533.935,359.97,533.152,358.825z"/>
	<path d="M545.548,360.062c-0.425-0.304-0.756-0.704-0.996-1.2s-0.36-1.016-0.36-1.561c0-1.088,0.232-1.972,0.696-2.651
		s1.052-1.216,1.764-1.608c0.712-0.392,1.716-0.852,3.013-1.38v-0.984c0-0.911-0.093-1.556-0.276-1.932
		c-0.185-0.376-0.557-0.563-1.116-0.563c-0.976,0-1.464,0.656-1.464,1.968v0.695l-2.544-0.096l0.023-0.504
		c0.08-1.392,0.469-2.403,1.164-3.036c0.696-0.632,1.692-0.948,2.988-0.948c1.328,0,2.292,0.364,2.893,1.093
		c0.6,0.728,0.899,1.828,0.899,3.3v6.336c0,1.04,0.08,2.152,0.24,3.336h-2.353c-0.176-0.912-0.287-1.592-0.336-2.04
		c-0.191,0.624-0.523,1.152-0.996,1.584c-0.472,0.432-1.076,0.648-1.812,0.648C546.448,360.518,545.972,360.365,545.548,360.062z
		 M548.968,357.913c0.319-0.264,0.552-0.516,0.696-0.756v-3.936c-0.705,0.416-1.232,0.74-1.584,0.972
		c-0.353,0.232-0.66,0.544-0.925,0.936c-0.264,0.393-0.396,0.853-0.396,1.38c0,0.576,0.104,1.021,0.312,1.332
		c0.208,0.312,0.512,0.469,0.912,0.469C548.32,358.31,548.648,358.177,548.968,357.913z"/>
	<path d="M554.944,360.325v-19.44h2.567v19.44H554.944z"/>
	<path d="M561.543,359.905c-0.592-0.408-1.008-1.012-1.248-1.812c-0.239-0.8-0.359-1.839-0.359-3.119v-3.168
		c0-1.921,0.3-3.324,0.899-4.213c0.601-0.888,1.668-1.332,3.204-1.332c1.12,0,1.964,0.232,2.532,0.696
		c0.567,0.465,0.944,1.116,1.128,1.956s0.276,1.973,0.276,3.396v1.128h-5.473v1.848c0,0.832,0.021,1.456,0.061,1.872
		s0.168,0.765,0.384,1.044c0.216,0.28,0.572,0.42,1.068,0.42c0.56,0,0.939-0.188,1.14-0.563s0.3-0.948,0.3-1.717v-0.84h2.496v0.528
		c0,1.456-0.312,2.568-0.936,3.336s-1.616,1.152-2.977,1.152C562.967,360.518,562.135,360.313,561.543,359.905z M565.456,352.045
		v-1.248c0-0.943-0.092-1.62-0.275-2.027c-0.185-0.408-0.572-0.612-1.164-0.612c-0.417,0-0.732,0.096-0.948,0.288
		c-0.216,0.191-0.364,0.508-0.444,0.948c-0.08,0.439-0.12,1.076-0.12,1.907v0.744H565.456z"/>
	<path d="M570.303,346.453h2.568v1.368c1.104-1.04,2.232-1.561,3.384-1.561c0.752,0,1.287,0.272,1.607,0.816s0.48,1.216,0.48,2.016
		v11.232h-2.568v-10.488c0-0.527-0.08-0.92-0.24-1.176s-0.447-0.384-0.863-0.384c-0.514,0-1.113,0.288-1.8,0.864v11.184h-2.568
		V346.453z"/>
	<path d="M581.402,359.197c-0.553-0.88-0.828-2.319-0.828-4.32v-2.688c0-1.84,0.244-3.288,0.732-4.345
		c0.488-1.056,1.379-1.584,2.676-1.584c0.816,0,1.584,0.36,2.305,1.08v-6.456h2.566v19.44h-2.566v-0.888
		c-0.672,0.72-1.434,1.08-2.281,1.08C582.822,360.518,581.955,360.077,581.402,359.197z M586.287,357.974v-9.097
		c-0.592-0.399-1.137-0.6-1.633-0.6c-1.008,0-1.512,0.968-1.512,2.904v3.911c0,1.12,0.104,1.969,0.312,2.544
		c0.207,0.576,0.623,0.864,1.248,0.864C585.215,358.501,585.742,358.325,586.287,357.974z"/>
	<path d="M592.516,360.062c-0.426-0.304-0.756-0.704-0.996-1.2s-0.361-1.016-0.361-1.561c0-1.088,0.232-1.972,0.697-2.651
		c0.463-0.68,1.051-1.216,1.764-1.608c0.711-0.392,1.715-0.852,3.012-1.38v-0.984c0-0.911-0.092-1.556-0.275-1.932
		c-0.186-0.376-0.557-0.563-1.117-0.563c-0.975,0-1.463,0.656-1.463,1.968v0.695l-2.545-0.096l0.023-0.504
		c0.08-1.392,0.469-2.403,1.164-3.036c0.697-0.632,1.693-0.948,2.988-0.948c1.328,0,2.293,0.364,2.893,1.093
		c0.6,0.728,0.9,1.828,0.9,3.3v6.336c0,1.04,0.08,2.152,0.24,3.336h-2.354c-0.176-0.912-0.287-1.592-0.336-2.04
		c-0.191,0.624-0.523,1.152-0.996,1.584c-0.471,0.432-1.076,0.648-1.811,0.648C593.414,360.518,592.939,360.365,592.516,360.062z
		 M595.936,357.913c0.318-0.264,0.551-0.516,0.695-0.756v-3.936c-0.705,0.416-1.232,0.74-1.584,0.972
		c-0.352,0.232-0.66,0.544-0.924,0.936c-0.264,0.393-0.396,0.853-0.396,1.38c0,0.576,0.104,1.021,0.312,1.332
		c0.207,0.312,0.512,0.469,0.912,0.469C595.287,358.31,595.615,358.177,595.936,357.913z"/>
	<path d="M601.742,346.453h2.568v1.968c0.48-0.783,0.973-1.336,1.477-1.655c0.504-0.32,1.035-0.48,1.596-0.48
		c0.145,0,0.279,0.008,0.408,0.024v2.832c-0.514-0.192-0.984-0.288-1.416-0.288c-0.416,0-0.789,0.1-1.117,0.3
		s-0.643,0.548-0.947,1.044v10.128h-2.568V346.453z"/>
</g>
<g enable-background="new    ">
	<path d="M736.096,224.081v-19.44h7.536v2.017h-4.823v6.432h3.912v1.92h-3.912v7.128h4.871v1.944H736.096z"/>
	<path d="M744.568,224.081l3.119-7.296l-3.047-6.576h2.447l2.04,4.392l1.8-4.392h2.521l-3.168,6.888l3.216,6.984h-2.448
		l-2.184-4.704l-1.872,4.704H744.568z"/>
	<path d="M756.256,223.613c-0.592-0.44-0.996-1.057-1.213-1.849c-0.215-0.792-0.323-1.796-0.323-3.012v-3.191
		c0-1.248,0.108-2.272,0.323-3.072c0.217-0.8,0.621-1.412,1.213-1.836s1.432-0.637,2.52-0.637c0.992,0,1.764,0.16,2.316,0.48
		c0.552,0.32,0.936,0.796,1.152,1.428c0.215,0.633,0.323,1.452,0.323,2.46v0.816h-2.328v-0.84c0-0.912-0.101-1.548-0.3-1.908
		c-0.2-0.36-0.58-0.54-1.141-0.54c-0.432,0-0.752,0.096-0.959,0.288c-0.209,0.191-0.353,0.504-0.432,0.936
		c-0.081,0.433-0.121,1.064-0.121,1.896v4.368c0,0.8,0.049,1.412,0.145,1.836s0.252,0.72,0.468,0.888s0.524,0.252,0.925,0.252
		c0.591,0,0.975-0.195,1.151-0.588c0.176-0.392,0.264-0.996,0.264-1.812v-1.129h2.328v0.96c0,1.505-0.276,2.625-0.828,3.36
		c-0.552,0.736-1.54,1.104-2.964,1.104C757.688,224.273,756.848,224.054,756.256,223.613z"/>
	<path d="M766.191,223.661c-0.592-0.408-1.008-1.012-1.248-1.812c-0.24-0.8-0.359-1.839-0.359-3.119v-3.168
		c0-1.921,0.3-3.324,0.9-4.213c0.6-0.888,1.668-1.332,3.203-1.332c1.12,0,1.965,0.232,2.532,0.696
		c0.567,0.465,0.944,1.116,1.128,1.956s0.275,1.973,0.275,3.396v1.128h-5.471v1.848c0,0.832,0.02,1.456,0.06,1.872
		s0.168,0.765,0.384,1.044c0.216,0.28,0.572,0.42,1.068,0.42c0.56,0,0.939-0.188,1.14-0.563s0.3-0.948,0.3-1.717v-0.84h2.496v0.528
		c0,1.456-0.312,2.568-0.936,3.336c-0.625,0.768-1.617,1.152-2.977,1.152C767.615,224.273,766.783,224.069,766.191,223.661z
		 M770.104,215.801v-1.248c0-0.943-0.092-1.62-0.275-2.027c-0.185-0.408-0.572-0.612-1.164-0.612c-0.416,0-0.732,0.096-0.948,0.288
		c-0.216,0.191-0.364,0.508-0.444,0.948c-0.08,0.439-0.119,1.076-0.119,1.907v0.744H770.104z"/>
	<path d="M775.191,224.081v-19.44h2.568v19.44H775.191z"/>
	<path d="M786.158,224.081v-19.44h7.513v1.944h-4.801v6.48h3.721v1.92h-3.721v9.096H786.158z"/>
	<path d="M795.494,208.146v-2.688h2.568v2.688H795.494z M795.494,224.081v-13.872h2.568v13.872H795.494z"/>
	<path d="M801.062,224.081v-19.44h2.567v19.44H801.062z"/>
	<path d="M807.662,223.661c-0.592-0.408-1.008-1.012-1.248-1.812c-0.239-0.8-0.359-1.839-0.359-3.119v-3.168
		c0-1.921,0.3-3.324,0.899-4.213c0.601-0.888,1.668-1.332,3.204-1.332c1.12,0,1.964,0.232,2.532,0.696
		c0.567,0.465,0.944,1.116,1.128,1.956s0.276,1.973,0.276,3.396v1.128h-5.473v1.848c0,0.832,0.021,1.456,0.061,1.872
		s0.168,0.765,0.384,1.044c0.216,0.28,0.572,0.42,1.068,0.42c0.56,0,0.939-0.188,1.14-0.563s0.3-0.948,0.3-1.717v-0.84h2.496v0.528
		c0,1.456-0.312,2.568-0.936,3.336s-1.616,1.152-2.977,1.152C809.086,224.273,808.254,224.069,807.662,223.661z M811.574,215.801
		v-1.248c0-0.943-0.092-1.62-0.275-2.027c-0.185-0.408-0.572-0.612-1.164-0.612c-0.417,0-0.732,0.096-0.948,0.288
		c-0.216,0.191-0.364,0.508-0.444,0.948c-0.08,0.439-0.12,1.076-0.12,1.907v0.744H811.574z"/>
	<path d="M816.914,223.217c-0.696-0.704-1.092-1.647-1.188-2.832l2.137-0.647c0.111,0.896,0.315,1.56,0.611,1.992
		c0.296,0.432,0.716,0.647,1.261,0.647c0.447,0,0.815-0.14,1.104-0.42c0.288-0.279,0.432-0.636,0.432-1.068
		c0-0.72-0.376-1.399-1.128-2.04l-2.376-2.04c-0.544-0.464-0.964-0.947-1.26-1.451s-0.444-1.124-0.444-1.86
		c0-1.104,0.32-1.96,0.961-2.568c0.64-0.607,1.512-0.912,2.615-0.912c1.057,0,1.885,0.341,2.484,1.021
		c0.6,0.681,0.948,1.557,1.044,2.628l-1.729,0.648c-0.111-0.784-0.296-1.381-0.552-1.788c-0.256-0.408-0.64-0.612-1.151-0.612
		c-0.417,0-0.753,0.136-1.009,0.408s-0.376,0.608-0.359,1.008c0,0.528,0.231,0.992,0.695,1.392l2.448,2.257
		c0.608,0.544,1.088,1.104,1.44,1.68c0.352,0.576,0.527,1.264,0.527,2.063c0,1.152-0.344,2.032-1.031,2.641
		c-0.688,0.608-1.624,0.912-2.809,0.912C818.518,224.273,817.61,223.921,816.914,223.217z"/>
</g>
<g enable-background="new    ">
	<path d="M503.118,63.526h4.464c1.76,0,3.063,0.396,3.912,1.188c0.848,0.792,1.272,2.021,1.272,3.684
		c0,2.48-0.928,3.849-2.784,4.104c1.152,0.272,1.992,0.812,2.52,1.62s0.792,1.908,0.792,3.3c0,1.744-0.412,3.104-1.236,4.08
		c-0.824,0.976-2.076,1.464-3.756,1.464h-5.184V63.526z M507.438,71.639c1.12,0,1.896-0.243,2.328-0.731
		c0.432-0.488,0.648-1.324,0.648-2.509c0-0.863-0.132-1.5-0.396-1.907c-0.264-0.408-0.66-0.668-1.188-0.78
		c-0.528-0.112-1.312-0.168-2.352-0.168h-0.648v6.096H507.438z M507.653,81.022c0.8,0,1.42-0.123,1.86-0.372
		c0.439-0.247,0.748-0.627,0.924-1.14c0.176-0.512,0.264-1.208,0.264-2.088c0-1.248-0.256-2.18-0.768-2.796
		c-0.512-0.616-1.344-0.924-2.496-0.924h-1.608v7.319H507.653z"/>
	<path d="M516.137,81.851c-0.616-0.872-0.924-2.14-0.924-3.804v-4.032c0-1.664,0.308-2.932,0.924-3.804
		c0.616-0.872,1.66-1.309,3.132-1.309c1.456,0,2.492,0.437,3.108,1.309s0.924,2.14,0.924,3.804v4.032
		c0,1.664-0.309,2.932-0.924,3.804s-1.652,1.309-3.108,1.309C517.797,83.159,516.753,82.723,516.137,81.851z M520.277,80.854
		c0.208-0.271,0.336-0.607,0.384-1.008c0.048-0.399,0.072-0.943,0.072-1.632v-4.344c0-0.688-0.024-1.236-0.072-1.645
		s-0.176-0.747-0.384-1.02c-0.208-0.272-0.544-0.408-1.008-0.408c-0.464,0-0.804,0.136-1.02,0.408
		c-0.216,0.272-0.348,0.611-0.396,1.02c-0.048,0.408-0.072,0.956-0.072,1.645v4.344c0,0.688,0.024,1.232,0.072,1.632
		c0.048,0.4,0.18,0.736,0.396,1.008c0.216,0.272,0.556,0.408,1.02,0.408C519.733,81.263,520.069,81.127,520.277,80.854z"/>
	<path d="M524.477,82.967l3.12-7.296l-3.048-6.576h2.448l2.04,4.392l1.8-4.392h2.52l-3.168,6.888l3.216,6.984h-2.448l-2.184-4.704
		l-1.872,4.704H524.477z"/>
	<path d="M534.772,82.967V80.11h2.568v2.856H534.772z"/>
	<path d="M540.676,82.499c-0.592-0.44-0.996-1.057-1.212-1.849s-0.324-1.796-0.324-3.012v-3.191c0-1.248,0.108-2.272,0.324-3.072
		s0.62-1.412,1.212-1.836s1.432-0.637,2.52-0.637c0.992,0,1.764,0.16,2.316,0.48c0.552,0.32,0.936,0.796,1.152,1.428
		c0.216,0.633,0.324,1.452,0.324,2.46v0.816h-2.328v-0.84c0-0.912-0.1-1.548-0.3-1.908c-0.2-0.36-0.58-0.54-1.14-0.54
		c-0.432,0-0.752,0.096-0.96,0.288c-0.208,0.191-0.352,0.504-0.432,0.936c-0.081,0.433-0.12,1.064-0.12,1.896v4.368
		c0,0.8,0.048,1.412,0.144,1.836c0.096,0.424,0.252,0.72,0.468,0.888c0.216,0.168,0.524,0.252,0.924,0.252
		c0.591,0,0.976-0.195,1.152-0.588c0.176-0.392,0.264-0.996,0.264-1.812v-1.129h2.328v0.96c0,1.505-0.276,2.625-0.828,3.36
		c-0.552,0.736-1.54,1.104-2.964,1.104C542.108,83.159,541.268,82.939,540.676,82.499z"/>
	<path d="M549.929,81.851c-0.616-0.872-0.924-2.14-0.924-3.804v-4.032c0-1.664,0.308-2.932,0.924-3.804
		c0.616-0.872,1.66-1.309,3.132-1.309c1.456,0,2.492,0.437,3.108,1.309c0.615,0.872,0.924,2.14,0.924,3.804v4.032
		c0,1.664-0.309,2.932-0.924,3.804c-0.616,0.872-1.652,1.309-3.108,1.309C551.588,83.159,550.544,82.723,549.929,81.851z
		 M554.068,80.854c0.208-0.271,0.336-0.607,0.385-1.008c0.048-0.399,0.071-0.943,0.071-1.632v-4.344
		c0-0.688-0.023-1.236-0.071-1.645c-0.049-0.408-0.177-0.747-0.385-1.02s-0.544-0.408-1.008-0.408s-0.804,0.136-1.02,0.408
		c-0.217,0.272-0.348,0.611-0.396,1.02c-0.048,0.408-0.072,0.956-0.072,1.645v4.344c0,0.688,0.024,1.232,0.072,1.632
		c0.049,0.4,0.18,0.736,0.396,1.008c0.216,0.272,0.556,0.408,1.02,0.408S553.86,81.127,554.068,80.854z"/>
	<path d="M559.444,69.095h2.376v1.32c0.464-0.512,0.972-0.9,1.524-1.164c0.552-0.265,1.132-0.396,1.739-0.396
		c1.185,0,1.937,0.585,2.257,1.752c0.96-1.167,2.111-1.752,3.456-1.752c0.72,0,1.308,0.265,1.764,0.792
		c0.456,0.528,0.684,1.337,0.684,2.424v10.896h-2.352V72.239c0-0.608-0.096-1.045-0.288-1.309s-0.473-0.396-0.84-0.396
		c-0.368,0-0.748,0.1-1.141,0.3c-0.392,0.2-0.756,0.477-1.092,0.828v0.407v10.896h-2.352V72.239c0-0.608-0.097-1.045-0.288-1.309
		c-0.192-0.264-0.473-0.396-0.84-0.396c-0.368,0-0.744,0.1-1.128,0.3c-0.385,0.2-0.753,0.477-1.104,0.828v11.304h-2.376V69.095z"/>
</g>
<g enable-background="new    ">
	<path d="M976.738,82.61h4.824c1.68,0,2.9,0.456,3.66,1.368s1.141,2.248,1.141,4.008c0,1.584-0.408,2.816-1.225,3.696
		s-2,1.32-3.553,1.32h-2.135v9.048h-2.713V82.61z M980.699,91.059c0.799,0,1.419-0.088,1.859-0.264
		c0.439-0.176,0.756-0.48,0.947-0.912c0.193-0.432,0.289-1.056,0.289-1.872c0-0.992-0.072-1.72-0.217-2.184
		c-0.144-0.464-0.428-0.792-0.852-0.984s-1.092-0.288-2.004-0.288h-1.271v6.504H980.699z"/>
	<path d="M988.283,102.051V82.61h2.567v19.44H988.283z"/>
	<path d="M994.605,101.787c-0.424-0.304-0.756-0.704-0.995-1.2c-0.24-0.496-0.36-1.016-0.36-1.561c0-1.088,0.232-1.972,0.696-2.651
		s1.052-1.216,1.764-1.608c0.712-0.392,1.716-0.852,3.013-1.38v-0.984c0-0.911-0.093-1.556-0.276-1.932
		c-0.185-0.376-0.556-0.563-1.116-0.563c-0.977,0-1.464,0.656-1.464,1.968v0.695l-2.544-0.096l0.023-0.504
		c0.08-1.392,0.469-2.403,1.164-3.036c0.696-0.632,1.692-0.948,2.988-0.948c1.328,0,2.292,0.364,2.893,1.093
		c0.6,0.728,0.899,1.828,0.899,3.3v6.336c0,1.04,0.08,2.152,0.24,3.336h-2.353c-0.176-0.912-0.287-1.592-0.336-2.04
		c-0.191,0.624-0.523,1.152-0.996,1.584c-0.472,0.432-1.076,0.648-1.812,0.648C995.506,102.243,995.029,102.091,994.605,101.787z
		 M998.026,99.639c0.319-0.264,0.552-0.516,0.696-0.756v-3.936c-0.705,0.416-1.232,0.74-1.584,0.972
		c-0.353,0.232-0.66,0.544-0.924,0.936c-0.265,0.393-0.396,0.853-0.396,1.38c0,0.576,0.104,1.021,0.312,1.332
		c0.207,0.312,0.512,0.469,0.911,0.469C997.379,100.035,997.706,99.902,998.026,99.639z"/>
	<path d="M1003.762,88.179h2.568v1.368c1.104-1.04,2.232-1.561,3.384-1.561c0.752,0,1.288,0.272,1.608,0.816
		c0.319,0.544,0.479,1.216,0.479,2.016v11.232h-2.567V91.562c0-0.527-0.08-0.92-0.24-1.176s-0.448-0.384-0.864-0.384
		c-0.513,0-1.112,0.288-1.8,0.864v11.184h-2.568V88.179z"/>
	<path d="M1020.826,100.623c-0.785-1.112-1.177-2.764-1.177-4.956v-6.504c0-1.504,0.156-2.74,0.468-3.708
		c0.312-0.968,0.848-1.712,1.608-2.232c0.76-0.52,1.804-0.78,3.132-0.78c1.791,0,3.084,0.456,3.877,1.368
		c0.791,0.912,1.188,2.345,1.188,4.296v0.721h-2.545v-0.601c0-0.928-0.055-1.644-0.168-2.147c-0.111-0.504-0.348-0.884-0.707-1.141
		c-0.361-0.256-0.893-0.384-1.596-0.384c-0.753,0-1.312,0.172-1.681,0.516c-0.368,0.345-0.604,0.805-0.708,1.381
		c-0.104,0.575-0.156,1.344-0.156,2.304v7.2c0,1.487,0.18,2.556,0.54,3.204c0.36,0.647,1.052,0.972,2.076,0.972
		c1.009,0,1.7-0.352,2.075-1.056c0.377-0.704,0.564-1.832,0.564-3.385v-1.344h-2.472v-1.92h4.921v9.624h-1.705l-0.264-2.232
		c-0.607,1.648-1.76,2.473-3.456,2.473C1022.881,102.291,1021.609,101.735,1020.826,100.623z"/>
	<path d="M1032.706,88.179h2.567v1.968c0.48-0.783,0.973-1.336,1.477-1.655c0.504-0.32,1.035-0.48,1.596-0.48
		c0.145,0,0.28,0.008,0.408,0.024v2.832c-0.513-0.192-0.984-0.288-1.416-0.288c-0.416,0-0.788,0.1-1.116,0.3
		s-0.644,0.548-0.948,1.044v10.128h-2.567V88.179z"/>
	<path d="M1040.505,86.115v-2.688h2.568v2.688H1040.505z M1040.505,102.051V88.179h2.568v13.872H1040.505z"/>
	<path d="M1046.397,100.923c-0.553-0.88-0.828-2.319-0.828-4.32v-2.688c0-1.84,0.243-3.288,0.731-4.345
		c0.488-1.056,1.38-1.584,2.677-1.584c0.815,0,1.584,0.36,2.304,1.08V82.61h2.567v19.44h-2.567v-0.888
		c-0.672,0.72-1.433,1.08-2.28,1.08C1047.816,102.243,1046.949,101.803,1046.397,100.923z M1051.281,99.699v-9.097
		c-0.592-0.399-1.137-0.6-1.632-0.6c-1.009,0-1.513,0.968-1.513,2.904v3.911c0,1.12,0.104,1.969,0.312,2.544
		c0.208,0.576,0.624,0.864,1.248,0.864C1050.209,100.227,1050.737,100.051,1051.281,99.699z"/>
</g>
<g enable-background="new    ">
	<path d="M262.506,481.421h4.224c2.096,0,3.58,0.48,4.452,1.44s1.308,2.456,1.308,4.488v7.151c0,2.145-0.428,3.74-1.284,4.788
		c-0.856,1.049-2.276,1.572-4.26,1.572h-4.44V481.421z M266.753,498.917c0.944,0,1.628-0.184,2.052-0.552
		c0.424-0.368,0.688-0.867,0.792-1.5c0.104-0.632,0.156-1.588,0.156-2.868v-6.312c0-1.104-0.068-1.948-0.204-2.532
		c-0.136-0.584-0.42-1.016-0.852-1.296s-1.104-0.42-2.016-0.42h-1.464v15.479H266.753z"/>
	<path d="M275.01,486.989h2.568v1.968c0.48-0.783,0.972-1.336,1.476-1.655c0.504-0.32,1.036-0.48,1.596-0.48
		c0.144,0,0.28,0.008,0.408,0.024v2.832c-0.512-0.192-0.984-0.288-1.416-0.288c-0.416,0-0.788,0.1-1.116,0.3
		s-0.644,0.548-0.948,1.044v10.128h-2.568V486.989z"/>
	<path d="M283.301,499.745c-0.616-0.872-0.924-2.14-0.924-3.804v-4.032c0-1.664,0.308-2.932,0.924-3.804
		c0.616-0.872,1.66-1.309,3.132-1.309c1.456,0,2.492,0.437,3.108,1.309s0.924,2.14,0.924,3.804v4.032
		c0,1.664-0.309,2.932-0.924,3.804s-1.652,1.309-3.108,1.309C284.961,501.054,283.917,500.617,283.301,499.745z M287.441,498.749
		c0.208-0.271,0.336-0.607,0.384-1.008c0.048-0.399,0.072-0.943,0.072-1.632v-4.344c0-0.688-0.024-1.236-0.072-1.645
		s-0.176-0.747-0.384-1.02c-0.208-0.272-0.544-0.408-1.008-0.408c-0.464,0-0.804,0.136-1.02,0.408
		c-0.216,0.272-0.348,0.611-0.396,1.02c-0.048,0.408-0.072,0.956-0.072,1.645v4.344c0,0.688,0.024,1.232,0.072,1.632
		c0.048,0.4,0.18,0.736,0.396,1.008c0.216,0.272,0.556,0.408,1.02,0.408C286.897,499.157,287.233,499.021,287.441,498.749z"/>
	<path d="M292.817,486.989h2.568v1.104c0.752-0.864,1.632-1.297,2.64-1.297c1.264,0,2.108,0.54,2.532,1.62
		c0.424,1.08,0.636,2.276,0.636,3.588v3.36c0,1.696-0.26,3.068-0.78,4.116c-0.52,1.048-1.412,1.572-2.676,1.572
		c-0.816,0-1.6-0.408-2.352-1.225v5.592h-2.568V486.989z M298.374,498.138c0.168-0.601,0.252-1.524,0.252-2.772v-3.36
		c0-1.023-0.096-1.812-0.288-2.363c-0.192-0.553-0.592-0.828-1.2-0.828c-0.592,0-1.176,0.24-1.752,0.72v8.88
		c0.56,0.416,1.176,0.624,1.848,0.624C297.825,499.037,298.206,498.737,298.374,498.138z"/>
	<path d="M306.137,499.854v1.008h-2.568v-19.44h2.568v6.673c0.752-0.864,1.624-1.297,2.616-1.297c1.264,0,2.108,0.54,2.532,1.62
		s0.637,2.276,0.637,3.588v3.36c0,3.792-1.145,5.688-3.432,5.688C307.657,501.054,306.873,500.653,306.137,499.854z
		 M309.101,498.138c0.168-0.601,0.252-1.524,0.252-2.772v-3.36c0-1.023-0.096-1.812-0.288-2.363c-0.192-0.553-0.592-0.828-1.2-0.828
		c-0.561,0-1.136,0.232-1.728,0.696v8.903c0.528,0.416,1.136,0.624,1.824,0.624C308.553,499.037,308.933,498.737,309.101,498.138z"
		/>
	<path d="M314.909,499.745c-0.616-0.872-0.924-2.14-0.924-3.804v-4.032c0-1.664,0.308-2.932,0.924-3.804
		c0.615-0.872,1.66-1.309,3.132-1.309c1.456,0,2.492,0.437,3.108,1.309c0.615,0.872,0.924,2.14,0.924,3.804v4.032
		c0,1.664-0.309,2.932-0.924,3.804c-0.616,0.872-1.652,1.309-3.108,1.309C316.569,501.054,315.524,500.617,314.909,499.745z
		 M319.048,498.749c0.208-0.271,0.336-0.607,0.385-1.008c0.048-0.399,0.071-0.943,0.071-1.632v-4.344
		c0-0.688-0.023-1.236-0.071-1.645c-0.049-0.408-0.177-0.747-0.385-1.02s-0.544-0.408-1.008-0.408s-0.804,0.136-1.02,0.408
		c-0.217,0.272-0.349,0.611-0.396,1.02s-0.072,0.956-0.072,1.645v4.344c0,0.688,0.024,1.232,0.072,1.632
		c0.048,0.4,0.18,0.736,0.396,1.008c0.216,0.272,0.556,0.408,1.02,0.408S318.84,499.021,319.048,498.749z"/>
	<path d="M323.249,500.861l3.12-7.296l-3.048-6.576h2.448l2.04,4.392l1.8-4.392h2.52l-3.168,6.888l3.216,6.984h-2.447l-2.185-4.704
		l-1.872,4.704H323.249z"/>
</g>
</svg>
